<svg width="30" height="30" viewBox="0 0 30 30" fill="none" xmlns="http://www.w3.org/2000/svg">
<path fill-rule="evenodd" clip-rule="evenodd" d="M17.163 23.8129H5.71323C5.25884 23.8129 4.82302 23.6323 4.50153 23.3111C4.18034 22.9896 4 22.5541 4 22.0994V5.71323C4 5.25884 4.18034 4.82302 4.50153 4.50183C4.82302 4.18064 5.25884 4 5.71323 4H10.8282V10.0879C10.8282 10.3104 10.951 10.5146 11.1476 10.6192C11.3441 10.7236 11.5822 10.7112 11.7667 10.5868L14.0675 9.0342L16.5425 10.6051C16.7278 10.7227 16.9624 10.73 17.1548 10.6243C17.3472 10.5185 17.4666 10.3163 17.4666 10.0971V4H22.4067C22.8611 4 23.297 4.18064 23.6184 4.50183C23.9396 4.82302 24.1203 5.25884 24.1203 5.71323V16.6653C23.4425 16.3492 22.687 16.1726 21.8908 16.1726C18.9753 16.1726 16.6082 18.5395 16.6082 21.455C16.6082 22.3021 16.808 23.1031 17.163 23.8129ZM12.5933 18.2368C12.5933 18.1122 12.5438 17.9925 12.4556 17.9044C12.3678 17.8163 12.2482 17.7668 12.1235 17.7668H6.92286C6.79822 17.7668 6.67887 17.8163 6.59076 17.9044C6.50266 17.9925 6.45316 18.1122 6.45316 18.2368C6.45316 18.3615 6.50266 18.4808 6.59076 18.5689C6.67887 18.657 6.79822 18.7065 6.92286 18.7065H12.1235C12.2482 18.7065 12.3678 18.657 12.4556 18.5689C12.5438 18.4808 12.5933 18.3615 12.5933 18.2368ZM10.6923 20.4875C10.6923 20.3629 10.6428 20.2433 10.5547 20.1552C10.4666 20.067 10.3473 20.0175 10.2226 20.0175H6.92286C6.79822 20.0175 6.67887 20.067 6.59076 20.1552C6.50266 20.2433 6.45316 20.3629 6.45316 20.4875C6.45316 20.6119 6.50266 20.7315 6.59076 20.8196C6.67887 20.9077 6.79822 20.9572 6.92286 20.9572H10.2226C10.3473 20.9572 10.4666 20.9077 10.5547 20.8196C10.6428 20.7315 10.6923 20.6119 10.6923 20.4875ZM16.5569 4V9.53661L14.3849 8.15813C14.183 8.02995 13.9243 8.03378 13.726 8.16756L11.7381 9.50862V4H16.5569ZM21.8908 17.3463C24.1583 17.3463 25.9994 19.1875 25.9994 21.455C25.9994 23.7228 24.1583 25.5639 21.8908 25.5639C19.623 25.5639 17.7819 23.7228 17.7819 21.455C17.7819 19.1875 19.623 17.3463 21.8908 17.3463ZM21.3173 22.3331L20.1378 21.1532C20.0559 21.0716 19.9448 21.0253 19.829 21.0253C19.7131 21.0253 19.6021 21.0716 19.5201 21.1532L19.5193 21.1541C19.4373 21.236 19.3914 21.3471 19.3914 21.4629C19.3914 21.5787 19.4373 21.6898 19.5193 21.7717L20.9782 23.2306C20.987 23.2413 20.9964 23.2519 21.0065 23.2616L21.0073 23.2625C21.0934 23.3485 21.2063 23.3913 21.3188 23.3904C21.4346 23.3904 21.5457 23.3444 21.6276 23.2625L21.6285 23.2616C21.6382 23.2519 21.6477 23.2416 21.6565 23.2309L24.3168 20.5706C24.4874 20.4 24.4874 20.1233 24.3168 19.953L24.3159 19.9521C24.1456 19.7815 23.8689 19.7815 23.6986 19.9521L21.3173 22.3331Z" fill="#219653"/>
</svg>
