<svg width="30" height="30" viewBox="0 0 30 30" fill="none" xmlns="http://www.w3.org/2000/svg">
<path d="M8.25284 17.2451C8.25177 17.7194 7.93218 18.1346 7.46832 18.2621V16.2302C7.93112 16.3577 8.2507 16.7719 8.25284 17.2451ZM11.3877 16.3261C11.0884 16.3261 10.8458 16.5654 10.8458 16.8605V17.7658V17.7647C10.8671 18.0461 11.1034 18.2632 11.3887 18.2632C11.6741 18.2632 11.9114 18.0461 11.9317 17.7647V16.8605C11.9306 16.5643 11.6869 16.3261 11.3877 16.3261ZM18.1457 21.5418H5.42473C4.63808 21.5418 4 20.9126 4 20.137V14.3564C4 13.5797 4.63808 12.9505 5.42473 12.9505H18.1457C18.523 12.9505 18.8854 13.0991 19.1526 13.3626C19.4209 13.626 19.5705 13.9833 19.5705 14.3564V20.137C19.5705 20.9126 18.9324 21.5418 18.1457 21.5418ZM9.39218 17.2451C9.39111 16.0447 8.40458 15.0709 7.18614 15.0698H6.90075H6.90182C6.58653 15.0698 6.33109 15.3217 6.33109 15.6316V18.8723C6.33109 19.0209 6.39201 19.1642 6.49889 19.2696C6.60577 19.375 6.75006 19.4341 6.90185 19.4341H7.18723H7.18616C7.774 19.4341 8.3362 19.2022 8.75092 18.7912C9.16455 18.3812 9.39538 17.8237 9.39218 17.2451ZM13.0753 16.8604C13.0379 15.9698 12.2951 15.2669 11.392 15.2669C10.4888 15.2669 9.74599 15.9699 9.70859 16.8604V17.7657V17.7646C9.746 18.6552 10.4888 19.3581 11.392 19.3581C12.2951 19.3581 13.0379 18.6551 13.0753 17.7646V16.8604ZM14.3633 17.3125C14.3579 16.8709 14.6508 16.4799 15.0804 16.3556C15.5101 16.2302 15.9718 16.4019 16.2102 16.7761C16.3897 17.0164 16.7285 17.0754 16.9819 16.912C17.2352 16.7487 17.3143 16.4188 17.1625 16.1606C16.6441 15.3786 15.6672 15.0245 14.7598 15.2911C13.8513 15.5567 13.2292 16.3798 13.2292 17.3135C13.2292 18.2473 13.8513 19.0704 14.7598 19.337C15.6672 19.6036 16.6441 19.2495 17.1625 18.4675C17.2555 18.3432 17.2918 18.1872 17.264 18.0344C17.2362 17.8826 17.1465 17.7488 17.0161 17.6634C16.8846 17.5791 16.7243 17.5517 16.5725 17.5875C16.4197 17.6223 16.2882 17.7182 16.2102 17.852C15.9686 18.2178 15.5112 18.3832 15.0868 18.2588C14.6625 18.1345 14.3718 17.7488 14.3718 17.3125L14.3633 17.3125ZM23.3872 6.76221V22.2449C23.3882 23.0838 23.0515 23.889 22.4509 24.4833C21.8502 25.0777 21.0336 25.4118 20.1828 25.4118H10.0333C10.246 26.3403 11.0807 27 12.0459 27H22.9361C24.0755 27 24.9989 26.0905 25 24.9681V8.75512C25.0011 7.80029 24.3309 6.97297 23.3872 6.76221ZM11.8408 7.0436V4.24125L7.56551 8.5442H10.3102C11.1556 8.54103 11.8396 7.8655 11.8407 7.03187L11.8408 7.0436ZM22.2467 22.2449V6.03187C22.2457 4.90948 21.3222 4 20.1828 4H12.9812V7.03195C12.978 8.4884 11.7809 9.66665 10.3049 9.66875H7.2289V11.8271H18.1457C19.5619 11.8271 20.7109 12.959 20.7109 14.3564V20.137C20.7109 21.5334 19.5619 22.6664 18.1457 22.6664H7.27159C7.47146 23.6106 8.31475 24.2872 9.29272 24.2883H20.183C20.7323 24.2883 21.2582 24.0722 21.6451 23.6886C22.0331 23.306 22.2489 22.7855 22.2467 22.2449Z" fill="#219653"/>
</svg>
