<svg width="30" height="30" viewBox="0 0 30 30" fill="none" xmlns="http://www.w3.org/2000/svg">
<path d="M23.6115 14.4481H21.7551L21.3505 12.5679C21.0411 11.1162 19.7084 10.0452 18.2328 10.0452H17.5664V11.7111H18.2328C18.9468 11.7111 19.5894 12.2109 19.7322 12.9249L20.3272 15.7094H10.0459L10.6409 12.9249C10.7837 12.2347 11.4262 11.7111 12.1402 11.7111H12.8066V10.0452H12.1402C10.6409 10.0452 9.3319 11.0924 9.02251 12.5679L8.61792 14.4481H6.76158C6.35699 14.4481 6 14.7813 6 15.2096V16.1854C6 16.6138 6.33319 16.947 6.76158 16.947H7.61835L7.11857 17.4468C6.80918 17.7562 6.61878 18.1607 6.59498 18.5891L6.26179 21.6354C6.19039 22.159 6.35699 22.6826 6.66638 23.0634V25.7765C6.66638 26.2287 7.02337 26.5857 7.47556 26.5857H9.4033C9.85548 26.5857 10.2125 26.2287 10.2125 25.7765V23.8726H20.1606V25.7765C20.1606 26.2287 20.5176 26.5857 20.9697 26.5857H22.8975C23.3497 26.5857 23.7067 26.2287 23.7067 25.7765V23.0872C24.016 22.7064 24.1826 22.1828 24.1112 21.6592L23.7781 18.6129C23.7305 18.1845 23.5401 17.78 23.2545 17.4706L22.7547 16.947H23.6115C24.016 16.947 24.373 16.6138 24.373 16.1854V15.2096C24.3492 14.7813 24.016 14.4481 23.6115 14.4481ZM10.2125 20.8977C9.47469 20.8977 8.90351 20.3027 8.90351 19.5887C8.90351 18.8747 9.49849 18.2797 10.2125 18.2797C10.9502 18.2797 11.5214 18.8747 11.5214 19.5887C11.5214 20.3027 10.9502 20.8977 10.2125 20.8977ZM16.9715 22.1352H13.4016C13.1874 22.1352 13.0208 21.9686 13.0208 21.7544C13.0208 21.5402 13.1874 21.3737 13.4016 21.3737H16.9477C17.1619 21.3737 17.3285 21.5402 17.3285 21.7544C17.3285 21.9686 17.1619 22.1352 16.9715 22.1352ZM16.9715 20.4455H13.4016C13.1874 20.4455 13.0208 20.2789 13.0208 20.0647C13.0208 19.8505 13.1874 19.6839 13.4016 19.6839H16.9477C17.1619 19.6839 17.3285 19.8505 17.3285 20.0647C17.3285 20.2789 17.1619 20.4455 16.9715 20.4455ZM20.1606 20.8977C19.4228 20.8977 18.8516 20.3027 18.8516 19.5887C18.8516 18.8747 19.4466 18.2797 20.1606 18.2797C20.8745 18.2797 21.4695 18.8747 21.4695 19.5887C21.4695 20.3027 20.8745 20.8977 20.1606 20.8977Z" fill="#219653"/>
<path d="M14.0207 8.56965V12.9487C14.0207 13.5913 14.5443 14.1149 15.1869 14.1149C15.8295 14.1149 16.3531 13.5913 16.3531 12.9487V8.59344C16.7339 8.40305 17.0671 8.14126 17.3288 7.76047C17.9 6.95129 17.9238 5.85653 17.4478 4.99975C17.186 4.57137 16.8529 4.23818 16.4721 4.04778C16.3293 3.97639 16.1389 4.07158 16.1389 4.23818V6.07072C16.1389 6.35631 15.9009 6.57051 15.6391 6.57051H14.8061C14.5205 6.57051 14.3063 6.33251 14.3063 6.07072V4.21438C14.3063 4.04778 14.1159 3.95259 13.9731 4.02398C13.5924 4.23818 13.2354 4.54757 12.9974 4.99975C12.4976 5.85653 12.5452 6.95129 13.1164 7.76047C13.3306 8.11746 13.6638 8.40305 14.0207 8.56965Z" fill="#219653"/>
</svg>
