<svg width="30" height="30" viewBox="0 0 30 30" fill="none" xmlns="http://www.w3.org/2000/svg">
<path d="M8.23019 19.0816C8.23019 19.8396 7.59032 20.4564 6.80396 20.4564C6.01878 20.4564 5.3792 19.8396 5.3792 19.0816C5.3792 18.3236 6.01878 17.7068 6.80396 17.7068C7.59002 17.7068 8.23019 18.3236 8.23019 19.0816ZM29 19.2444C29 19.8979 28.4483 20.4297 27.7704 20.4297H25.3632C24.8575 21.3619 23.8439 22 22.68 22C21.5146 22 20.5007 21.3619 19.9949 20.4297H9.48872C8.98236 21.3619 7.96935 22 6.80366 22C5.63916 22 4.62615 21.3619 4.12038 20.4297H2.22964C1.55175 20.4297 1 19.8979 1 19.2444C1 18.7813 1.27676 18.3788 1.67937 18.1839V14.9587C1.67937 14.9513 1.67937 14.9433 1.67996 14.9359C1.67937 14.9334 1.67937 14.9311 1.67937 14.9285C1.67937 14.9243 1.67937 14.9195 1.67996 14.9155C1.69853 14.2828 2.11499 13.708 2.72863 13.4768C2.73128 13.4756 2.73453 13.4748 2.73747 13.4736C4.26185 12.9401 4.79768 11.9127 5.36535 10.8257C6.09069 9.43673 6.84051 8 9.66114 8H17.1416C18.4089 8 19.6291 9.5322 20.791 11.4184C20.8281 11.4792 20.8656 11.5403 20.9021 11.6016L26.6518 8.97705L26.9949 9.67681C27.086 9.85892 27.0975 10.0692 27.0244 10.2658C26.9525 10.4612 26.8063 10.6169 26.6129 10.7058L24.3824 11.7235L25.057 13.2654L25.7178 13.3495L25.7626 13.3552H25.7632L25.9736 13.3821C27.3129 13.5248 28.3221 14.6112 28.3221 15.911V18.1847C28.7238 18.3796 29 18.7816 29 19.2444ZM3.52383 15.6891C3.52383 15.4735 3.34198 15.2976 3.11739 15.2976H2.4448V16.0809H3.11709C3.34198 16.0812 3.52383 15.9056 3.52383 15.6891ZM9.06577 19.0816C9.06577 18.8936 9.04101 18.7109 8.99444 18.537C8.99444 18.5364 8.99444 18.5364 8.99444 18.5364C8.99238 18.5273 8.98943 18.5185 8.98678 18.51C8.72535 17.5835 7.84644 16.9011 6.80366 16.9011C5.55752 16.9011 4.54333 17.8787 4.54333 19.0814C4.54333 20.2828 5.55752 21.2616 6.80366 21.2616C8.05158 21.2619 9.06577 20.2834 9.06577 19.0816ZM11.7791 14.8155C11.7791 14.6112 11.607 14.4461 11.3957 14.4461H10.309C10.0973 14.4461 9.92581 14.6109 9.92581 14.8155C9.92581 15.0195 10.0973 15.1842 10.309 15.1842H11.3957C11.607 15.1842 11.7791 15.0195 11.7791 14.8155ZM13.3212 9.8575C13.3212 9.65351 13.1502 9.48787 12.9383 9.48787H9.66143C7.69053 9.48787 7.2328 10.4899 6.74737 11.5499C6.68813 11.6803 6.62623 11.8161 6.55992 11.9539C6.39987 12.2903 6.21743 12.6062 6.01907 12.8915C5.94008 13.0046 5.93301 13.1509 5.99933 13.2708C6.06623 13.3912 6.19592 13.4662 6.33739 13.4662H12.938C13.1499 13.4662 13.3209 13.3009 13.3209 13.0969L13.3212 9.8575ZM17.5686 14.8155C17.5686 14.6112 17.3971 14.4461 17.1858 14.4461H16.0991C15.8875 14.4461 15.7159 14.6109 15.7159 14.8155C15.7159 15.0195 15.8875 15.1842 16.0991 15.1842H17.1858C17.3974 15.1842 17.5686 15.0195 17.5686 14.8155ZM19.9047 12.9151C19.0812 11.5144 17.9491 9.78676 17.2303 9.51344C17.1855 9.49668 17.1377 9.48759 17.09 9.48759H14.7229C14.5113 9.48759 14.3395 9.65351 14.3395 9.85722V13.0966C14.3395 13.3006 14.5116 13.466 14.7229 13.466H19.5714C19.7072 13.466 19.834 13.3964 19.9024 13.2827C19.971 13.1691 19.9716 13.0293 19.9047 12.9151ZM21.8871 12.8622L22.2877 12.9134L24.1769 13.1537L23.6897 12.0397L21.8871 12.8622ZM24.9403 19.0816C24.9403 17.879 23.9261 16.9014 22.68 16.9014C21.6372 16.9014 20.7577 17.5838 20.4965 18.5103C20.4939 18.5188 20.4909 18.5276 20.4889 18.5367C20.4889 18.5367 20.4889 18.5367 20.4889 18.5373C20.4429 18.7112 20.4181 18.8938 20.4181 19.0819C20.4181 20.2834 21.4323 21.2622 22.68 21.2622C23.9261 21.2619 24.9403 20.2834 24.9403 19.0816ZM27.5567 15.911C27.5567 15.0473 26.9283 14.3169 26.068 14.1433V15.3638C26.068 15.759 26.4028 16.0812 26.8142 16.0812H27.5567V15.911ZM22.68 17.7068C21.893 17.7068 21.2537 18.3236 21.2537 19.0816C21.2537 19.8396 21.8933 20.4564 22.68 20.4564C23.4651 20.4564 24.1041 19.8396 24.1041 19.0816C24.1041 18.3236 23.4651 17.7068 22.68 17.7068Z" fill="#219653"/>
</svg>
