<svg width="30" height="30" viewBox="0 0 30 30" fill="none" xmlns="http://www.w3.org/2000/svg">
<g clip-path="url(#clip0_32_12500)">
<path d="M16.8335 10.4167V4.42167C17.6815 4.74189 18.4517 5.2387 19.0931 5.87917L22.2867 9.07467C22.9279 9.71531 23.4251 10.4853 23.7452 11.3333H17.7502C17.507 11.3333 17.2739 11.2368 17.102 11.0648C16.9301 10.8929 16.8335 10.6598 16.8335 10.4167ZM24.1668 13.6112V21.4167C24.1654 22.6318 23.682 23.7967 22.8228 24.656C21.9636 25.5152 20.7986 25.9985 19.5835 26H10.4168C9.2017 25.9985 8.03676 25.5152 7.17753 24.656C6.3183 23.7967 5.83495 22.6318 5.8335 21.4167V8.58333C5.83495 7.3682 6.3183 6.20326 7.17753 5.34403C8.03676 4.48481 9.2017 4.00146 10.4168 4H14.5556C14.705 4 14.8526 4.01192 15.0002 4.022V10.4167C15.0002 11.146 15.2899 11.8455 15.8056 12.3612C16.3213 12.8769 17.0208 13.1667 17.7502 13.1667H24.1448C24.1549 13.3142 24.1668 13.4618 24.1668 13.6112ZM19.3305 17.1184C19.1629 16.9425 18.9324 16.8403 18.6895 16.8343C18.4466 16.8283 18.2113 16.919 18.0352 17.0863L14.7352 20.2314C14.6471 20.3201 14.5417 20.3898 14.4255 20.4363C14.3094 20.4827 14.185 20.5049 14.06 20.5015C13.935 20.498 13.812 20.469 13.6986 20.4163C13.5852 20.3636 13.4838 20.2882 13.4006 20.1947L11.944 18.8986C11.8541 18.8184 11.7492 18.7567 11.6355 18.7171C11.5217 18.6774 11.4013 18.6606 11.281 18.6675C11.0381 18.6814 10.8107 18.7912 10.6487 18.9728C10.5686 19.0628 10.5069 19.1676 10.4672 19.2813C10.4276 19.3951 10.4107 19.5156 10.4176 19.6358C10.4315 19.8787 10.5414 20.1062 10.723 20.2681L12.1383 21.5276C12.6514 22.0407 13.3464 22.3303 14.072 22.3332C14.7977 22.3362 15.495 22.0522 16.0122 21.5432L19.2984 18.4137C19.4743 18.2461 19.5765 18.0155 19.5825 17.7727C19.5885 17.5298 19.4979 17.2945 19.3305 17.1184Z" fill="#219653"/>
</g>
<defs>
<clipPath id="clip0_32_12500">
<rect width="22" height="22" fill="white" transform="translate(4 4)"/>
</clipPath>
</defs>
</svg>
