<svg width="30" height="30" viewBox="0 0 30 30" fill="none" xmlns="http://www.w3.org/2000/svg">
<path d="M27.792 18.8478C25.6946 17.5824 22.956 17.4481 22.2366 17.4351C20.7807 16.1264 18.9087 15.0171 17.418 14.5881C16.5384 14.3411 15.6023 14.2154 14.6446 14.2154H10.7187C9.77397 14.2154 8.85103 14.4711 8.04498 14.9607L5.69635 16.3908H2.43333C2.19498 16.3908 2 16.5857 2 16.8241V21.2354C2 22.5744 3.09201 23.6621 4.43099 23.6621H4.94235C4.92066 23.5928 4.89897 23.5191 4.88168 23.4454C4.83835 23.2158 4.81667 23.0034 4.81667 22.7954C4.81667 22.6914 4.82534 22.5961 4.83402 22.4921C4.977 21.1921 6.004 20.1218 7.28665 19.9441C7.42968 19.9181 7.57266 19.9094 7.7113 19.9094C8.40902 19.9094 9.06335 20.1521 9.59201 20.6158C10.2203 21.1617 10.5844 21.9591 10.5887 22.7954V22.8041C10.5887 23.0034 10.5713 23.2114 10.5323 23.4194C10.5323 23.4281 10.5236 23.4454 10.5236 23.4541C10.5063 23.5234 10.489 23.5928 10.4674 23.6621H19.303C19.2813 23.5928 19.2597 23.5191 19.2423 23.4454C19.199 23.2158 19.1773 23.0034 19.1773 22.7954C19.1773 22.6914 19.186 22.5961 19.1946 22.4921C19.3333 21.1921 20.3647 20.1218 21.6387 19.9441C21.7817 19.9181 21.929 19.9094 22.072 19.9094C22.7696 19.9094 23.4153 20.1521 23.9526 20.6158C24.5853 21.1617 24.9493 21.9634 24.9493 22.8041C24.9493 23.0034 24.9233 23.2114 24.8844 23.4194C24.867 23.5018 24.8453 23.5841 24.8193 23.6621H27.0163C27.558 23.6621 28 23.2201 28 22.6784V19.2161C28 19.0644 27.922 18.9258 27.792 18.8478ZM10.06 17.4351C9.7653 17.4351 9.48801 17.3224 9.28002 17.1144L8.09269 15.9488L8.49566 15.7018C9.16735 15.2944 9.93436 15.0821 10.7187 15.0821H13.57L13.8257 17.4351H10.06ZM15.4073 19.7448H14.7313C14.493 19.7448 14.298 19.5498 14.298 19.3114C14.298 19.0688 14.493 18.8781 14.7313 18.8781H15.4073C15.65 18.8781 15.8406 19.0688 15.8406 19.3114C15.8406 19.5498 15.65 19.7448 15.4073 19.7448ZM14.6967 17.4351L14.441 15.0821H14.6446C15.5243 15.0821 16.378 15.1948 17.1797 15.4244C18.1243 15.6931 19.5413 16.3994 20.8847 17.4351H14.6967Z" fill="#219653"/>
<path d="M7.70857 24.8288C8.64622 24.8288 9.4765 24.1736 9.69115 23.2585C9.69115 23.2529 9.69681 23.2416 9.69681 23.236C9.72501 23.0891 9.73633 22.9422 9.73633 22.801C9.73633 22.2079 9.48215 21.6431 9.03597 21.259C8.66315 20.9314 8.19998 20.7619 7.70857 20.7619C7.61251 20.7619 7.51084 20.7676 7.40917 20.7845C6.50537 20.9088 5.78242 21.6657 5.68076 22.5807C5.65812 22.7954 5.66944 23.01 5.71466 23.2529C5.92361 24.1736 6.74267 24.8288 7.70857 24.8288Z" fill="#219653"/>
<path d="M22.0694 24.8288C23.0127 24.8288 23.8487 24.1623 24.052 23.236C24.0803 23.0891 24.0972 22.9422 24.0972 22.801C24.0972 22.2079 23.843 21.6431 23.3968 21.259C23.0183 20.9314 22.5608 20.7619 22.0694 20.7619C21.9677 20.7619 21.866 20.7676 21.7644 20.7845C20.8663 20.9088 20.1376 21.6657 20.0416 22.5807C20.019 22.7954 20.0303 23.01 20.0755 23.2529C20.2845 24.1736 21.1035 24.8288 22.0694 24.8288Z" fill="#219653"/>
<path d="M27.5971 8.42448C27.5971 6.40947 25.9634 4.77145 23.944 4.77145C21.9247 4.77145 20.291 6.40947 20.291 8.42448C20.291 10.4438 23.944 14.4521 23.944 14.4521C23.944 14.4521 27.5971 10.4438 27.5971 8.42448ZM22.2323 8.42448C22.2323 7.47979 22.9993 6.71281 23.944 6.71281C24.8887 6.71281 25.6557 7.47979 25.6557 8.42448C25.6557 9.37345 24.8887 10.1405 23.944 10.1405C22.9993 10.1405 22.2323 9.37345 22.2323 8.42448Z" fill="#219653"/>
</svg>
