<svg width="30" height="30" viewBox="0 0 30 30" fill="none" xmlns="http://www.w3.org/2000/svg">
<path fill-rule="evenodd" clip-rule="evenodd" d="M20.2283 6.7037C20.2283 6.31505 20.5105 6 20.8587 6H28.4239C28.7721 6 29.0543 6.31505 29.0543 6.7037V24.2963H29.6848C29.8589 24.2963 30 24.4538 30 24.6481C30 24.8425 29.8589 25 29.6848 25H28.4239H20.8587H19.5978C19.4237 25 19.2826 24.8425 19.2826 24.6481C19.2826 24.4538 19.4237 24.2963 19.5978 24.2963H20.2283V15.8343C19.8686 15.7528 19.5978 15.3978 19.5978 14.9722V14.2671C18.8332 14.3069 17.7065 15.0308 17.7065 16.9074C17.7065 17.4712 17.5618 17.9099 17.3229 18.2479C17.0859 18.5831 16.7645 18.8075 16.4264 18.9615C15.8686 19.2156 15.2335 19.2901 14.8038 19.3406C14.7455 19.3474 14.6911 19.3538 14.6411 19.3601C14.6451 19.411 14.6471 19.4621 14.6471 19.5134V21.9741V21.9799V24.2963C14.6471 24.6849 14.3648 25 14.0166 25H12.7187C12.3705 25 12.0882 24.685 12.0882 24.2963V23.7333H4.41176V24.2963C4.41176 24.6849 4.12951 25 3.78132 25H2.48338C2.1352 25 1.85294 24.685 1.85294 24.2963V21.9037V21.9022V19.5134C1.85294 19.2344 1.9124 18.9594 2.0264 18.7111L2.33757 18.0333H1.56739C1.25403 18.0333 1 17.7498 1 17.4C1 17.0502 1.25403 16.7667 1.56739 16.7667H2.56496C2.67838 16.7667 2.78404 16.8038 2.87268 16.8678L3.54595 15.4013C3.81565 14.8139 4.35725 14.4444 4.9486 14.4444H11.5514C12.1427 14.4444 12.6844 14.8139 12.9541 15.4013L13.6273 16.8678C13.716 16.8038 13.8216 16.7667 13.935 16.7667H14.9326C15.246 16.7667 15.5 17.0502 15.5 17.4C15.5 17.7498 15.246 18.0333 14.9326 18.0333H14.1624L14.4736 18.7111C14.5182 18.8083 14.5545 18.9095 14.5821 19.0135C14.6448 19.0053 14.7126 18.9972 14.7844 18.9887L14.7847 18.9886C15.2167 18.9374 15.7959 18.8687 16.3073 18.6357C16.6128 18.4965 16.8824 18.303 17.0755 18.0299C17.2667 17.7594 17.3913 17.3992 17.3913 16.9074C17.3913 14.8171 18.6762 13.9551 19.5978 13.915V13.213C19.5978 12.7874 19.8686 12.4324 20.2283 12.3509V6.7037ZM23.3804 19.0185L25.2717 15.5L24.8349 18.3148H25.9022L24.0109 21.8333L24.4477 19.0185H23.3804ZM20.8587 7.75926C20.8587 7.3706 21.1409 7.05556 21.4891 7.05556H27.7935C28.1417 7.05556 28.4239 7.3706 28.4239 7.75926V11.2778C28.4239 11.6664 28.1417 11.9815 27.7935 11.9815H21.4891C21.1409 11.9815 20.8587 11.6664 20.8587 11.2778V7.75926ZM3.31373 19.8426C2.99674 19.7798 2.70588 20.0519 2.70588 20.4113C2.70588 20.7303 2.93755 20.9889 3.22335 20.9889H4.4267C4.65397 20.9889 4.83824 20.7832 4.83824 20.5295C4.83824 20.3068 4.69507 20.1161 4.49857 20.0772L3.31373 19.8426ZM11.6618 20.5295C11.6618 20.3068 11.805 20.1161 12.0014 20.0772L13.1863 19.8426C13.5033 19.7798 13.7941 20.0519 13.7941 20.4113C13.7941 20.7303 13.5625 20.9889 13.2767 20.9889H12.0733C11.846 20.9889 11.6618 20.7832 11.6618 20.5295ZM6.85932 22.0444C6.68523 22.0444 6.54411 22.202 6.54411 22.3963V22.537C6.54411 22.7314 6.68523 22.8889 6.85932 22.8889H9.64065C9.81474 22.8889 9.95586 22.7314 9.95586 22.537V22.3963C9.95586 22.202 9.81474 22.0444 9.64065 22.0444H6.85932ZM4.24201 15.3631C4.31432 15.1891 4.47054 15.0777 4.64237 15.0777H11.8577C12.0295 15.0777 12.1857 15.1891 12.258 15.3631L13.0768 17.3334C13.2125 17.6599 12.9989 18.0333 12.6765 18.0333H3.82353C3.50109 18.0333 3.28753 17.6599 3.4232 17.3334L4.24201 15.3631Z" fill="#219653"/>
</svg>
