<svg width="30" height="30" viewBox="0 0 30 30" fill="none" xmlns="http://www.w3.org/2000/svg">
<path fill-rule="evenodd" clip-rule="evenodd" d="M25.5394 14.8701L17.1729 19.2457C17.1683 19.2482 17.1637 19.2503 17.1588 19.2526C17.1257 19.2675 17.09 19.2759 17.0537 19.2772C17.0173 19.2784 16.9811 19.2726 16.947 19.26C16.913 19.2475 16.8817 19.2284 16.8551 19.2038C16.8285 19.1793 16.8071 19.1498 16.792 19.1171L15.778 16.9253V26L25.5394 20.8947V14.8701ZM25.6874 10.6476L27 13.486L25.7064 14.1625C25.6944 14.1678 25.6827 14.1739 25.6714 14.1809L17.1729 18.6247L15.8603 15.7863L25.6869 10.6476H25.6874ZM15.1397 15.7863L5.31261 10.6476L4 13.486L5.29382 14.1625C5.3058 14.1679 5.3174 14.174 5.32857 14.1809L13.8271 18.6247L15.1397 15.7863ZM15.2226 16.9253V26L5.4606 20.8947V14.8701L13.8284 19.2457C13.833 19.2482 13.8376 19.2503 13.8423 19.2526C13.8753 19.2675 13.9111 19.2759 13.9474 19.2772C13.9838 19.2785 14.02 19.2726 14.0541 19.2601C14.0882 19.2475 14.1195 19.2284 14.1461 19.2039C14.1727 19.1793 14.1942 19.1498 14.2093 19.1171L15.222 16.9258L15.2226 16.9253ZM6.49524 20.1336L8.74547 21.3102C8.81008 21.3398 8.8837 21.3436 8.95109 21.321C9.01848 21.2983 9.0745 21.2509 9.10755 21.1885C9.1406 21.1262 9.14817 21.0536 9.12868 20.9859C9.10919 20.9182 9.06414 20.8604 9.00284 20.8247L6.75262 19.648C6.68801 19.6185 6.61439 19.6146 6.547 19.6373C6.47961 19.6599 6.42359 19.7074 6.39054 19.7697C6.35748 19.8321 6.34992 19.9046 6.36941 19.9724C6.38889 20.0401 6.43395 20.0978 6.49524 20.1336ZM6.57065 18.5294C6.50936 18.4936 6.46431 18.4359 6.44482 18.3682C6.42533 18.3005 6.43289 18.2279 6.46595 18.1655C6.499 18.1032 6.55502 18.0558 6.62241 18.0331C6.6898 18.0105 6.76342 18.0143 6.82803 18.0438L9.07825 19.2205C9.13955 19.2563 9.1846 19.314 9.20409 19.3817C9.22358 19.4495 9.21601 19.522 9.18296 19.5844C9.14991 19.6467 9.09389 19.6941 9.0265 19.7168C8.95911 19.7394 8.88549 19.7356 8.82088 19.7061L6.56911 18.5294H6.57065ZM17.6565 9.28637C17.8937 8.43421 18.2809 7.63008 18.8003 6.91093L25.2244 10.2703L15.5 15.3542L5.77614 10.2695L15.5 5.18454L16.0842 5.49009C14.9286 6.50323 14.086 7.81902 13.6539 9.2856H11.8373C11.7811 9.28556 11.7261 9.3024 11.6798 9.3339C11.6334 9.3654 11.5978 9.41008 11.5776 9.46203C11.5574 9.51398 11.5537 9.57076 11.5668 9.62486C11.58 9.67897 11.6094 9.72786 11.6512 9.76507L15.3003 13.5305C15.3255 13.5565 15.3557 13.5773 15.389 13.5917C15.4224 13.6062 15.4583 13.614 15.4947 13.6147C15.5311 13.6154 15.5673 13.609 15.6012 13.5959C15.6351 13.5827 15.666 13.5631 15.6923 13.5382L15.6997 13.5305L19.3624 9.75081C19.4001 9.71205 19.4255 9.66318 19.4353 9.61027C19.4452 9.55736 19.4391 9.50275 19.4178 9.45324C19.3965 9.40374 19.361 9.36152 19.3156 9.33185C19.2703 9.30217 19.2171 9.28636 19.1627 9.28637H17.6565ZM14.138 9.60924C14.1265 9.67274 14.0928 9.73023 14.0428 9.77161C13.9927 9.813 13.9296 9.83565 13.8644 9.8356H12.4887L15.5 12.9441L18.5113 9.8356H17.3016C17.258 9.8356 17.2149 9.82543 17.1759 9.8059C17.137 9.78637 17.1032 9.75804 17.0774 9.72319C17.0516 9.68835 17.0345 9.64798 17.0273 9.60535C17.0202 9.56273 17.0234 9.51905 17.0365 9.47785C17.2956 8.35995 17.7926 7.30958 18.4946 6.39683L18.5025 6.38613C18.663 6.17802 18.8331 5.97813 19.0129 5.78648C19.7058 5.04641 20.532 4.44057 21.4492 4C19.7875 4.01104 18.1752 4.56097 16.8597 5.56546C16.8254 5.59177 16.7911 5.61817 16.7568 5.64465C16.7516 5.64898 16.7462 5.65331 16.7408 5.65713C15.469 6.66585 14.5569 8.05077 14.138 9.60924Z" fill="#219653"/>
</svg>
