<svg width="30" height="30" viewBox="0 0 30 30" fill="none" xmlns="http://www.w3.org/2000/svg">
<path fill-rule="evenodd" clip-rule="evenodd" d="M17.3319 24.0666H5.73546C5.27496 24.0666 4.83385 23.8837 4.50825 23.5584C4.18294 23.2328 4 22.7917 4 22.3312V5.73516C4 5.27496 4.18294 4.83356 4.50825 4.50825C4.83385 4.18295 5.27496 4 5.73546 4H10.9159V10.1659C10.9159 10.3912 11.0403 10.598 11.2394 10.704C11.4382 10.8096 11.6793 10.7971 11.8661 10.6712L14.1967 9.09866L16.7034 10.6897C16.8908 10.8087 17.1286 10.8162 17.3235 10.7091C17.5181 10.6019 17.6393 10.3972 17.6393 10.1751V4H22.6427C23.1029 4 23.5443 4.18295 23.8696 4.50825C24.1952 4.83356 24.3779 5.27496 24.3779 5.73516V16.8275C23.6918 16.5073 22.9265 16.3285 22.1198 16.3285C19.167 16.3285 16.7699 18.7256 16.7699 21.6785C16.7699 22.5365 16.9723 23.3477 17.3319 24.0666ZM12.7036 18.4191C12.7036 18.2929 12.6534 18.1717 12.5642 18.0825C12.475 17.9932 12.3541 17.9431 12.2279 17.9431H6.96058C6.83434 17.9431 6.71347 17.9932 6.62424 18.0825C6.535 18.1717 6.48486 18.2929 6.48486 18.4191C6.48486 18.5454 6.535 18.6662 6.62424 18.7555C6.71347 18.8447 6.83434 18.8948 6.96058 18.8948H12.2279C12.3541 18.8948 12.475 18.8447 12.5642 18.7555C12.6534 18.6662 12.7036 18.5454 12.7036 18.4191ZM10.7783 20.6986C10.7783 20.5724 10.7282 20.4512 10.6389 20.362C10.5497 20.2728 10.4285 20.2226 10.3026 20.2226H6.96058C6.83434 20.2226 6.71347 20.2728 6.62424 20.362C6.535 20.4512 6.48486 20.5724 6.48486 20.6986C6.48486 20.8246 6.535 20.9458 6.62424 21.035C6.71347 21.1242 6.83434 21.1744 6.96058 21.1744H10.3026C10.4285 21.1744 10.5497 21.1242 10.6389 21.035C10.7282 20.9458 10.7783 20.8246 10.7783 20.6986ZM16.718 4V9.6075L14.5181 8.21137C14.3134 8.08155 14.0517 8.08543 13.8508 8.22092L11.8372 9.57915V4H16.718ZM22.1198 17.5172C24.4167 17.5172 26.2814 19.3819 26.2814 21.6785C26.2814 23.9753 24.4167 25.84 22.1198 25.84C19.823 25.84 17.9583 23.9753 17.9583 21.6785C17.9583 19.3819 19.823 17.5172 22.1198 17.5172ZM21.5253 21.6785L20.1767 23.0271C20.0128 23.1913 20.0128 23.4572 20.1767 23.6213L20.1773 23.6216C20.3414 23.7858 20.6073 23.7858 20.7715 23.6216L22.1198 22.2733L23.4685 23.6216C23.6324 23.7858 23.8986 23.7858 24.0627 23.6216L24.063 23.6213C24.2272 23.4572 24.2272 23.1913 24.063 23.0271L22.7147 21.6785L24.063 20.3301C24.2272 20.1659 24.2272 19.9 24.063 19.7359L24.0627 19.7356C23.8986 19.5714 23.6324 19.5714 23.4685 19.7356L22.1198 21.0839L20.7715 19.7356C20.6073 19.5714 20.3414 19.5714 20.1773 19.7356L20.1767 19.7359C20.0128 19.9 20.0128 20.1659 20.1767 20.3301L21.5253 21.6785Z" fill="#219653"/>
</svg>
