<svg width="30" height="30" viewBox="0 0 30 30" fill="none" xmlns="http://www.w3.org/2000/svg">
<path fill-rule="evenodd" clip-rule="evenodd" d="M15.0585 5.001C10.1085 5.18583 5.83666 8.43041 4.45628 13.0538C3.07589 17.6771 4.89728 22.6398 8.97678 25.3707C9.58899 25.7806 10.3149 26 11.0583 26C14.0194 26 16.9806 26 19.9417 26C20.6851 26 21.411 25.7806 22.0232 25.3707C26.1027 22.6398 27.9241 17.6771 26.5437 13.0538C25.1633 8.43041 20.8915 5.18583 15.9415 5.001C15.6141 5.00073 15.3785 4.99889 15.0585 5.001ZM15.4658 7.64837C15.4888 7.65027 15.5121 7.6493 15.5335 7.64837C19.4719 7.66331 22.9175 10.2289 23.9562 13.9208C23.9231 13.9297 23.9232 13.9297 23.9562 13.9208C24.0229 14.1579 23.8388 14.3924 23.5859 14.3924H15.5H7.41407C7.1612 14.3924 6.97707 14.1579 7.04376 13.9209C7.07683 13.9297 7.07687 13.9297 7.04376 13.9209C8.08249 10.229 11.5274 7.66331 15.4658 7.64837ZM7.19084 16.926C7.22259 16.9254 7.25515 16.9287 7.28798 16.9364C10.4004 17.6606 12.9044 19.9004 13.9045 22.8547C13.986 23.0956 13.8007 23.3445 13.5397 23.3445H11.0583C10.8685 23.3445 10.6832 23.2885 10.5269 23.1839C8.5047 21.8302 7.15941 19.7142 6.81836 17.351C6.78553 17.1236 6.96859 16.9299 7.19084 16.926ZM23.8092 16.926C24.0314 16.9299 24.2145 17.1236 24.1816 17.351C23.8406 19.7142 22.4953 21.8302 20.4731 23.1839C20.3168 23.2885 20.1315 23.3445 19.9417 23.3445H17.4603C17.1993 23.3445 17.014 23.0956 17.0955 22.8547C18.0956 19.9004 20.5996 17.6606 23.712 16.9364C23.7449 16.9287 23.7774 16.9254 23.8092 16.926Z" fill="#219653"/>
</svg>
