<svg width="30" height="30" viewBox="0 0 30 30" fill="none" xmlns="http://www.w3.org/2000/svg">
<path d="M22.9467 15.0767C23.16 15.0767 23.3733 15.1034 23.5867 15.13C23.7467 15.1567 23.9067 15.0234 23.9067 14.8367V12.73C23.9067 12.3567 23.7733 12.0367 23.5867 11.77L18.4133 5.10336C18.28 4.91669 18.04 4.81003 17.8267 4.81003H9.13333C8.89333 4.81003 8.68 4.91669 8.54666 5.10336L3.32 11.77C3.10667 12.0367 3 12.3567 3 12.73V15.6634C3 16.5434 3.72 17.2634 4.6 17.2634H18.6C18.68 17.2634 18.76 17.21 18.8133 17.1567C19.7733 15.8767 21.2667 15.0767 22.9467 15.0767ZM6.81333 15.3434C6.36 15.3434 5.98666 14.97 5.98666 14.5167C5.98666 14.0634 6.36 13.69 6.81333 13.69C7.26666 13.69 7.64 14.0634 7.64 14.5167C7.64 14.97 7.26666 15.3434 6.81333 15.3434ZM9.66666 15.3434C9.21333 15.3434 8.84 14.97 8.84 14.5167C8.84 14.0634 9.21333 13.69 9.66666 13.69C10.12 13.69 10.4933 14.0634 10.4933 14.5167C10.52 14.97 10.12 15.3434 9.66666 15.3434ZM12.6 15.3434C12.1467 15.3434 11.7733 14.97 11.7733 14.5167C11.7733 14.0634 12.1467 13.69 12.6 13.69C13.0533 13.69 13.4267 14.0634 13.4267 14.5167C13.4533 14.97 13.08 15.3434 12.6 15.3434ZM6.65333 11.7434C6.49333 11.7434 6.38666 11.5567 6.49333 11.4234L9.95999 6.86336C10.0933 6.67669 10.3067 6.57003 10.5467 6.57003H16.3867C16.6267 6.57003 16.84 6.67669 16.9733 6.86336L20.3867 11.4234C20.4933 11.5567 20.3867 11.7434 20.2267 11.7434H6.65333Z" fill="#686868"/>
<path d="M17.8267 20.1967C17.8267 19.77 17.88 19.37 17.96 18.97C18.0133 18.7834 17.8533 18.6234 17.6933 18.6234H4.25333C3.56 18.6234 3 19.1834 3 19.8767V22.8633C3 23.5567 3.56 24.1167 4.25333 24.1167H18.9733C19.2133 24.1167 19.3467 23.8233 19.1867 23.6367C18.3333 22.73 17.8267 21.53 17.8267 20.1967ZM6.81333 22.0633C6.36 22.0633 5.98666 21.69 5.98666 21.2367C5.98666 20.7833 6.36 20.41 6.81333 20.41C7.26666 20.41 7.64 20.7833 7.64 21.2367C7.64 21.69 7.26666 22.0633 6.81333 22.0633ZM9.66666 22.0633C9.21333 22.0633 8.84 21.69 8.84 21.2367C8.84 20.7833 9.21333 20.41 9.66666 20.41C10.12 20.41 10.4933 20.7833 10.4933 21.2367C10.52 21.69 10.12 22.0633 9.66666 22.0633ZM12.6 22.0633C12.1467 22.0633 11.7733 21.69 11.7733 21.2367C11.7733 20.7833 12.1467 20.41 12.6 20.41C13.0533 20.41 13.4267 20.7833 13.4267 21.2367C13.4533 21.69 13.08 22.0633 12.6 22.0633Z" fill="#686868"/>
<path d="M22.9464 16.1434C20.7064 16.1434 18.8931 17.9567 18.8931 20.1967C18.8931 22.4367 20.7064 24.25 22.9464 24.25C25.1864 24.25 26.9997 22.4367 26.9997 20.1967C26.9997 17.9567 25.1864 16.1434 22.9464 16.1434ZM20.4397 20.1967C20.5197 19.0234 21.0797 18.3834 21.5064 18.0634C22.0931 17.6367 22.8931 17.5034 23.5864 17.69C23.9331 17.77 24.2264 17.93 24.5197 18.1434V17.7967C24.5197 17.7434 24.5731 17.69 24.6264 17.69H25.2397C25.2931 17.69 25.3464 17.7434 25.3464 17.7967V19.2367C25.3464 19.4234 25.2131 19.5834 25.0264 19.6367C24.8397 19.69 24.6531 19.5834 24.5731 19.4234C24.3331 18.9434 23.9064 18.5967 23.3997 18.4634C22.9197 18.33 22.3864 18.4367 21.9864 18.73C21.5597 19.05 21.2931 19.5567 21.2397 20.25V20.3567H20.4397V20.1967ZM25.4797 20.49C25.3997 21.2367 25.0264 21.8767 24.3864 22.3034C23.7731 22.73 22.9997 22.8634 22.2797 22.7034C21.9864 22.6234 21.6931 22.49 21.4531 22.33V22.7034C21.4531 22.7567 21.3997 22.81 21.3464 22.81H20.7331C20.6797 22.81 20.6264 22.7567 20.6264 22.7034V21.3167C20.6264 21.13 20.7331 20.97 20.9197 20.9434C21.1064 20.89 21.2664 20.97 21.3731 21.13C21.6131 21.53 22.0131 21.8234 22.4664 21.9567C22.9464 22.09 23.4797 21.9834 23.9064 21.69C24.3331 21.3967 24.5997 20.97 24.6531 20.4634V20.2234H25.4531V20.49H25.4797Z" fill="#686868"/>
</svg>
