<svg width="30" height="30" viewBox="0 0 30 30" fill="none" xmlns="http://www.w3.org/2000/svg">
<path d="M21.3143 7C20.7593 7 20.2331 7.12505 19.7617 7.34775C19.9417 7.57959 20.1034 7.82637 20.2442 8.08608C20.3823 8.34077 20.5003 8.60796 20.5965 8.88511C20.7883 9.43789 20.8928 10.0311 20.8928 10.6482C20.8928 11.2654 20.7883 11.8586 20.5965 12.4113C20.5003 12.6886 20.3823 12.9556 20.2442 13.2104C20.1034 13.4701 19.9417 13.7168 19.7617 13.9487C20.2331 14.1713 20.7593 14.2965 21.3143 14.2965C23.3259 14.2966 24.9625 12.66 24.9625 10.6483C24.9625 8.63657 23.3259 7 21.3143 7Z" fill="#6C6C6C"/>
<path d="M21.3138 16.0407C21.098 16.0407 20.8828 16.0514 20.6689 16.072C21.002 16.3313 21.3153 16.6147 21.6058 16.9201C21.899 17.2283 22.1688 17.5587 22.4131 17.9082C23.2114 19.0501 23.7347 20.3978 23.8851 21.8547C23.9147 22.1414 23.93 22.4323 23.93 22.7267C23.93 23.0325 23.8768 23.3259 23.78 23.5988H27.1277C27.6093 23.5988 27.9998 23.2083 27.9998 22.7267C27.9998 19.04 25.0004 16.0407 21.3138 16.0407Z" fill="#6C6C6C"/>
<path d="M10.4041 12.4115C10.2123 11.8587 10.1078 11.2655 10.1078 10.6484C10.1078 10.0312 10.2123 9.43802 10.4041 8.88524C10.5003 8.60789 10.6183 8.3408 10.7563 8.08611C10.8972 7.8264 11.0588 7.57967 11.2389 7.34778C10.7675 7.12513 10.2413 7.00003 9.68633 7.00003C7.67466 7.00003 6.03809 8.6366 6.03809 10.6483C6.03809 12.6599 7.67466 14.2965 9.68633 14.2965C10.2413 14.2965 10.7675 14.1714 11.2389 13.9487C11.0589 13.7168 10.8972 13.4701 10.7563 13.2104C10.6183 12.9557 10.5003 12.6887 10.4041 12.4115Z" fill="#6C6C6C"/>
<path d="M9.68604 16.0407C5.99937 16.0407 3 19.04 3 22.7267C3 23.2083 3.39048 23.5988 3.87207 23.5988H7.21973C7.123 23.3259 7.06978 23.0324 7.06978 22.7267C7.06978 22.4323 7.08506 22.1414 7.11465 21.8547C7.26504 20.3978 7.78833 19.0501 8.58662 17.9082C8.83101 17.5587 9.10073 17.2283 9.39395 16.9201C9.68447 16.6147 9.9978 16.3313 10.3308 16.072C10.117 16.0514 9.90186 16.0407 9.68604 16.0407Z" fill="#6C6C6C"/>
<path d="M18.8886 9.29814C18.7661 8.99194 18.6039 8.70586 18.4073 8.44692C17.7405 7.5686 16.6858 7 15.5003 7C14.3149 7 13.2602 7.5686 12.5934 8.44702C12.3968 8.70596 12.2346 8.99204 12.1121 9.29824C11.945 9.71616 11.8521 10.1714 11.8521 10.6483C11.8521 11.1251 11.945 11.5804 12.1121 11.9983C12.2346 12.3045 12.3968 12.5906 12.5934 12.8495C13.2602 13.7278 14.3149 14.2965 15.5003 14.2965C16.6858 14.2965 17.7405 13.7278 18.4073 12.8494C18.6039 12.5905 18.7661 12.3044 18.8886 11.9982C19.0557 11.5803 19.1486 11.125 19.1486 10.6482C19.1486 10.1713 19.0557 9.71606 18.8886 9.29814Z" fill="#6C6C6C"/>
<path d="M22.1296 21.8546C21.9289 20.3213 21.2067 18.9499 20.1475 17.9245C19.8966 17.6818 19.6272 17.4583 19.3411 17.2569C19.0459 17.0491 18.7335 16.8643 18.4061 16.7058C17.7766 16.4008 17.0923 16.1917 16.3725 16.0975V21.564C16.3725 22.0456 15.982 22.436 15.5004 22.436C15.0188 22.436 14.6284 22.0455 14.6284 21.564V16.0975C13.9085 16.1917 13.2243 16.4008 12.5948 16.7058C12.2674 16.8644 11.9549 17.0491 11.6598 17.2569C11.3737 17.4584 11.1041 17.6818 10.8534 17.9245C9.79404 18.9499 9.07188 20.3213 8.87124 21.8546C8.83394 22.1401 8.81445 22.4311 8.81445 22.7267C8.81445 23.2083 9.20493 23.5988 9.68652 23.5988H21.3145C21.7961 23.5988 22.1865 23.2082 22.1865 22.7267C22.1865 22.4311 22.167 22.1401 22.1296 21.8546Z" fill="#6C6C6C"/>
</svg>
