<svg width="30" height="30" viewBox="0 0 30 30" fill="none" xmlns="http://www.w3.org/2000/svg">
<path d="M27.3943 20.3541V18.1784C27.3943 16.9368 26.4932 15.8982 25.2975 15.7619L21.4115 15.2341C20.1567 12.8747 18.8166 10.6182 17.412 10.6182H11.9453V8.9338C11.9453 8.78737 11.8583 8.65619 11.7256 8.60421L7.72279 7.02347C7.64394 6.99218 7.55744 6.99218 7.47806 7.02347L3.47441 8.60421C3.3423 8.65619 3.25474 8.78737 3.25474 8.9338V13.6033C3.25474 13.6357 3.25923 13.6678 3.2674 13.6991C3.50026 14.554 3.87262 15.2945 4.38975 15.9249C3.91481 16.1875 3.60653 16.7076 3.60653 17.2688V20.3527C3.24683 20.5386 3 20.9226 3 21.3652C3 21.9909 3.49261 22.4998 4.09783 22.4998H5.78663C6.2381 23.3906 7.14236 24 8.18191 24C9.22251 24 10.127 23.3906 10.5788 22.4998H19.9603C20.4115 23.3906 21.3165 24 22.3571 24C23.3961 24 24.3009 23.3906 24.7524 22.4998H26.9022C27.5074 22.4998 28 21.9909 28 21.3652C27.9995 20.9237 27.7529 20.54 27.3943 20.3541ZM8.18164 23.2943C7.06905 23.2943 6.16347 22.3597 6.16347 21.2114C6.16347 20.0623 7.06905 19.1277 8.18164 19.1277C9.10964 19.1277 9.89286 19.776 10.1289 20.657C10.1318 20.6687 10.1347 20.6796 10.1376 20.6913C10.1792 20.8573 10.2011 21.0315 10.2011 21.2114C10.2014 22.3597 9.29582 23.2943 8.18164 23.2943ZM7.60095 17.2571C5.63526 16.5392 4.43617 15.3264 3.93802 13.5541V9.17629L7.60095 7.73029L11.2613 9.17629V13.5541C10.7639 15.3261 9.56533 16.5389 7.60095 17.2571ZM12.2815 17.4863H11.3114C11.1225 17.4863 10.9693 17.3282 10.9693 17.1327C10.9693 16.9384 11.1225 16.7803 11.3114 16.7803H12.2815C12.4704 16.7803 12.6241 16.9384 12.6241 17.1327C12.6238 17.3282 12.4704 17.4863 12.2815 17.4863ZM14.0007 15.4894C14.0007 15.6837 13.848 15.8419 13.6586 15.8419H10.876C11.0516 15.6203 11.2085 15.3849 11.3496 15.1364C11.5967 14.6996 11.7905 14.2211 11.9327 13.6994C11.9411 13.6681 11.9453 13.6357 11.9453 13.6036V12.0395H13.6586C13.848 12.0395 14.0007 12.1981 14.0007 12.3925V15.4894ZM17.4511 17.4863H16.4809C16.2921 17.4863 16.1388 17.3282 16.1388 17.1327C16.1388 16.9384 16.2921 16.7803 16.4809 16.7803H17.4511C17.6399 16.7803 17.7931 16.9384 17.7931 17.1327C17.7931 17.3282 17.6399 17.4863 17.4511 17.4863ZM19.8767 15.6666C19.8155 15.7757 19.7026 15.8419 19.5813 15.8419H15.252C15.0632 15.8419 14.9094 15.6837 14.9094 15.4894V12.3922C14.9094 12.1979 15.0632 12.0392 15.252 12.0392H17.3654C17.4078 12.0392 17.4505 12.0479 17.4906 12.064C18.132 12.325 19.1433 13.9762 19.8785 15.315C19.9384 15.4241 19.9378 15.5585 19.8767 15.6666ZM22.3566 23.2943C21.2427 23.2943 20.3371 22.3597 20.3371 21.2114C20.3371 21.0318 20.3593 20.8576 20.4001 20.6913C20.403 20.6796 20.4059 20.6687 20.4088 20.657C20.6446 19.776 21.4283 19.1277 22.3563 19.1277C23.4689 19.1277 24.374 20.0623 24.374 21.2114C24.3742 22.3597 23.4692 23.2943 22.3566 23.2943ZM9.4551 21.2114C9.4551 21.9354 8.88364 22.5241 8.18164 22.5241C7.4807 22.5241 6.90977 21.9354 6.90977 21.2114C6.90977 20.4864 7.4807 19.8971 8.18164 19.8971C8.8839 19.8971 9.4551 20.4864 9.4551 21.2114ZM7.60095 9.54236C6.02476 9.54236 4.74233 10.8656 4.74233 12.4921C4.74233 14.118 6.02449 15.4402 7.60095 15.4402C9.17583 15.4402 10.4572 14.1177 10.4572 12.4921C10.4572 10.8659 9.17583 9.54236 7.60095 9.54236ZM9.00811 11.816L7.38445 13.7331C7.32089 13.8083 7.2278 13.8524 7.12997 13.8534H7.12759C7.03081 13.8534 6.93825 13.811 6.87364 13.7372L6.09728 12.8486C5.97043 12.7041 5.98177 12.4806 6.12233 12.3503C6.26236 12.2196 6.4786 12.2311 6.60518 12.3761L7.12364 12.9694L8.49335 11.3517C8.61756 11.2047 8.8338 11.1895 8.97568 11.3185C9.11808 11.4459 9.13232 11.669 9.00811 11.816ZM23.6282 21.2114C23.6282 21.9354 23.0578 22.5241 22.3566 22.5241C21.6541 22.5241 21.0831 21.9354 21.0831 21.2114C21.0831 20.4864 21.6541 19.8971 22.3566 19.8971C23.0578 19.8971 23.6282 20.4864 23.6282 21.2114Z" fill="#6C6C6C"/>
</svg>
