<svg width="30" height="30" viewBox="0 0 30 30" fill="none" xmlns="http://www.w3.org/2000/svg">
<path d="M11.9062 9.73214C11.9062 7.67423 10.1329 6 7.95312 6C5.77336 6 4 7.67423 4 9.73214C4 11.7901 5.77336 13.4643 7.95312 13.4643C10.1329 13.4643 11.9062 11.7901 11.9062 9.73214ZM7.59375 11.4286C7.5018 11.4286 7.40985 11.3954 7.33966 11.3292L5.90216 9.97203C5.76178 9.83949 5.76178 9.62479 5.90216 9.49226C6.04254 9.35972 6.26996 9.35972 6.41034 9.49226L7.59375 10.6095L9.49591 8.81369C9.63629 8.68115 9.86371 8.68115 10.0041 8.81369C10.1445 8.94622 10.1445 9.16092 10.0041 9.29346L7.84784 11.3292C7.77765 11.3954 7.6857 11.4286 7.59375 11.4286ZM13.7031 13.125H12.2656V11.432C12.3627 11.2114 12.4417 10.9841 12.4992 10.75H13.7031V13.125ZM25.5625 14.1429C25.5625 13.7681 25.2407 13.4643 24.8438 13.4643H23.0469V15.1607C23.0469 15.3473 22.8852 15.5 22.6875 15.5H21.25C21.0523 15.5 20.8906 15.3473 20.8906 15.1607V13.4643H19.0938C18.6968 13.4643 18.375 13.7681 18.375 14.1429V18.8929H25.5625V14.1429ZM20.1719 18.2143H19.4531C19.2555 18.2143 19.0938 18.0616 19.0938 17.875C19.0938 17.6884 19.2555 17.5357 19.4531 17.5357H20.1719C20.3695 17.5357 20.5312 17.6884 20.5312 17.875C20.5312 18.0616 20.3695 18.2143 20.1719 18.2143ZM19.0938 12.7857H23.4062C23.8032 12.7857 24.125 12.4819 24.125 12.1071V8.03571C24.125 7.66251 23.8016 7.35714 23.4062 7.35714H22.3281V9.05357C22.3281 9.24017 22.1664 9.39286 21.9688 9.39286H20.5312C20.3336 9.39286 20.1719 9.24017 20.1719 9.05357V7.35714H19.0938C18.6968 7.35714 18.375 7.66096 18.375 8.03571V12.1071C18.375 12.4819 18.6968 12.7857 19.0938 12.7857ZM22.3281 11.4286H23.0469C23.2445 11.4286 23.4062 11.5813 23.4062 11.7679C23.4062 11.9545 23.2445 12.1071 23.0469 12.1071H22.3281C22.1305 12.1071 21.9688 11.9545 21.9688 11.7679C21.9688 11.5813 22.1305 11.4286 22.3281 11.4286ZM21.6094 8.71429H20.8906V7.35714H21.6094V8.71429ZM21.6094 14.8214V13.4643H22.3281V14.8214H21.6094ZM10.1094 16.5179H11.5469V17.1964H10.1094V16.5179ZM11.5469 13.4643V12.5482C10.7634 13.4405 9.60984 14.0377 8.3125 14.1293V18.8929H17.6562V11.4286C17.6562 11.0538 17.3344 10.75 16.9375 10.75H14.4219V13.4643C14.4219 13.6509 14.2602 13.8036 14.0625 13.8036H11.9062C11.7086 13.8036 11.5469 13.6509 11.5469 13.4643ZM12.2656 16.1786V17.5357C12.2656 17.7223 12.1039 17.875 11.9062 17.875H9.75C9.55235 17.875 9.39062 17.7223 9.39062 17.5357V16.1786C9.39062 15.992 9.55235 15.8393 9.75 15.8393H11.9062C12.1039 15.8393 12.2656 15.992 12.2656 16.1786ZM27 24.3214C27 24.6962 26.6782 25 26.2812 25H7.59375C7.1968 25 6.875 24.6962 6.875 24.3214C6.875 23.9467 7.1968 23.6429 7.59375 23.6429H26.2812C26.6782 23.6429 27 23.9467 27 24.3214ZM7.59375 19.5714H26.2812C26.6782 19.5714 27 19.8752 27 20.25C27 20.6248 26.6782 20.9286 26.2812 20.9286H7.59375C7.1968 20.9286 6.875 20.6248 6.875 20.25C6.875 19.8752 7.1968 19.5714 7.59375 19.5714ZM19.0938 22.9643V21.6071H21.25V22.9643H19.0938ZM23.4062 22.9643V21.6071H25.5625V22.9643H23.4062ZM13.3438 22.9643V21.6071H15.5V22.9643H13.3438ZM8.3125 22.9643V21.6071H10.4688V22.9643H8.3125Z" fill="#6C6C6C"/>
</svg>
