<svg width="30" height="30" viewBox="0 0 30 30" fill="none" xmlns="http://www.w3.org/2000/svg">
<path d="M8.97197 19.0816C8.97197 19.8396 8.35495 20.4564 7.59667 20.4564C6.83954 20.4564 6.2228 19.8396 6.2228 19.0816C6.2228 18.3236 6.83954 17.7068 7.59667 17.7068C8.35466 17.7068 8.97197 18.3236 8.97197 19.0816ZM29 19.2444C29 19.8979 28.468 20.4297 27.8143 20.4297H25.4931C25.0054 21.3619 24.028 22 22.9057 22C21.7819 22 20.8042 21.3619 20.3165 20.4297H10.1855C9.69727 21.3619 8.72044 22 7.59639 22C6.47347 22 5.49664 21.3619 5.00894 20.4297H3.18573C2.53204 20.4297 2 19.8979 2 19.2444C2 18.7813 2.26687 18.3788 2.65511 18.1839V14.9587C2.65511 14.9513 2.65511 14.9433 2.65567 14.9359C2.65511 14.9334 2.65511 14.9311 2.65511 14.9285C2.65511 14.9243 2.65511 14.9195 2.65567 14.9155C2.67358 14.2828 3.07517 13.708 3.66689 13.4768C3.66945 13.4756 3.67258 13.4748 3.67542 13.4736C5.14536 12.9401 5.66205 11.9127 6.20944 10.8257C6.90888 9.43673 7.63192 8 10.3518 8H17.5651C18.7872 8 19.9638 9.5322 21.0842 11.4184C21.12 11.4792 21.1561 11.5403 21.1913 11.6016L26.7357 8.97705L27.0665 9.67681C27.1543 9.85892 27.1654 10.0692 27.0949 10.2658C27.0256 10.4612 26.8846 10.6169 26.6982 10.7058L24.5473 11.7235L25.1978 13.2654L25.835 13.3495L25.8782 13.3552H25.8788L26.0817 13.3821C27.3732 13.5248 28.3463 14.6112 28.3463 15.911V18.1847C28.7337 18.3796 29 18.7816 29 19.2444ZM4.43369 15.6891C4.43369 15.4735 4.25834 15.2976 4.04177 15.2976H3.3932V16.0809H4.04148C4.25834 16.0812 4.43369 15.9056 4.43369 15.6891ZM9.77771 19.0816C9.77771 18.8936 9.75383 18.7109 9.70893 18.537C9.70893 18.5364 9.70893 18.5364 9.70893 18.5364C9.70694 18.5273 9.70409 18.5185 9.70154 18.51C9.44944 17.5835 8.60193 16.9011 7.59639 16.9011C6.39475 16.9011 5.41678 17.8787 5.41678 19.0814C5.41678 20.2828 6.39475 21.2616 7.59639 21.2616C8.79974 21.2619 9.77771 20.2834 9.77771 19.0816ZM12.3941 14.8155C12.3941 14.6112 12.2282 14.4461 12.0244 14.4461H10.9765C10.7724 14.4461 10.607 14.6109 10.607 14.8155C10.607 15.0195 10.7724 15.1842 10.9765 15.1842H12.0244C12.2282 15.1842 12.3941 15.0195 12.3941 14.8155ZM13.8811 9.8575C13.8811 9.65351 13.7163 9.48787 13.5119 9.48787H10.3521C8.45158 9.48787 8.0102 10.4899 7.54211 11.5499C7.48498 11.6803 7.42529 11.8161 7.36135 11.9539C7.20702 12.2903 7.03109 12.6062 6.83982 12.8915C6.76365 13.0046 6.75683 13.1509 6.82078 13.2708C6.88529 13.3912 7.01035 13.4662 7.14677 13.4662H13.5117C13.716 13.4662 13.8809 13.3009 13.8809 13.0969L13.8811 9.8575ZM17.9769 14.8155C17.9769 14.6112 17.8115 14.4461 17.6077 14.4461H16.5598C16.3558 14.4461 16.1903 14.6109 16.1903 14.8155C16.1903 15.0195 16.3558 15.1842 16.5598 15.1842H17.6077C17.8118 15.1842 17.9769 15.0195 17.9769 14.8155ZM20.2295 12.9151C19.4355 11.5144 18.3438 9.78676 17.6506 9.51344C17.6074 9.49668 17.5614 9.48759 17.5153 9.48759H15.2328C15.0288 9.48759 14.8631 9.65351 14.8631 9.85722V13.0966C14.8631 13.3006 15.0291 13.466 15.2328 13.466H19.9081C20.0391 13.466 20.1613 13.3964 20.2273 13.2827C20.2935 13.1691 20.2941 13.0293 20.2295 12.9151ZM22.1411 12.8622L22.5274 12.9134L24.3492 13.1537L23.8794 12.0397L22.1411 12.8622ZM25.0853 19.0816C25.0853 17.879 24.1073 16.9014 22.9057 16.9014C21.9001 16.9014 21.0521 17.5838 20.8002 18.5103C20.7977 18.5188 20.7948 18.5276 20.7929 18.5367C20.7929 18.5367 20.7929 18.5367 20.7929 18.5373C20.7485 18.7112 20.7246 18.8938 20.7246 19.0819C20.7246 20.2834 21.7026 21.2622 22.9057 21.2622C24.1073 21.2619 25.0853 20.2834 25.0853 19.0816ZM27.6082 15.911C27.6082 15.0473 27.0023 14.3169 26.1727 14.1433V15.3638C26.1727 15.759 26.4955 16.0812 26.8923 16.0812H27.6082V15.911ZM22.9057 17.7068C22.1468 17.7068 21.5304 18.3236 21.5304 19.0816C21.5304 19.8396 22.1471 20.4564 22.9057 20.4564C23.6628 20.4564 24.279 19.8396 24.279 19.0816C24.279 18.3236 23.6628 17.7068 22.9057 17.7068Z" fill="#6C6C6C"/>
</svg>
