<svg width="30" height="30" viewBox="0 0 30 30" fill="none" xmlns="http://www.w3.org/2000/svg">
<path fill-rule="evenodd" clip-rule="evenodd" d="M15.194 10.7032L16.7829 12.2213C16.8415 12.2772 16.921 12.3086 17.0038 12.3086C17.0866 12.3086 17.1661 12.2772 17.2247 12.2213L19.6686 9.88792C19.6985 9.86039 19.7224 9.82744 19.7388 9.79101C19.7552 9.75457 19.7639 9.71538 19.7643 9.67572C19.7646 9.63606 19.7568 9.59672 19.7411 9.55999C19.7254 9.52327 19.7022 9.4899 19.6728 9.46184C19.6435 9.43377 19.6086 9.41156 19.5702 9.39651C19.5318 9.38147 19.4906 9.37388 19.4491 9.37419C19.4076 9.3745 19.3665 9.38271 19.3284 9.39834C19.2902 9.41396 19.2557 9.43669 19.2268 9.4652L17.0042 11.5884L15.6365 10.2813C15.5779 10.2254 15.4984 10.1939 15.4155 10.194C15.3326 10.194 15.2531 10.2254 15.1945 10.2814C15.1359 10.3374 15.103 10.4134 15.1031 10.4926C15.1031 10.5717 15.136 10.6477 15.1946 10.7036L15.194 10.7032ZM5.31249 8.27963C5.22961 8.27963 5.15013 8.24818 5.09153 8.1922C5.03292 8.13621 5 8.06028 5 7.98111C5 7.90194 5.03292 7.82601 5.09153 7.77003C5.15013 7.71405 5.22961 7.6826 5.31249 7.6826H8.2296C8.47016 7.68021 8.70521 7.75143 8.90037 7.88583C9.09552 8.02022 9.24054 8.21074 9.3142 8.42952L10.0505 10.5446H12.7941C12.7781 10.7434 12.7781 10.9431 12.7941 11.1419C12.8734 12.2649 13.3964 13.3172 14.2572 14.0859C15.118 14.8545 16.2523 15.2821 17.4306 15.2821C18.6089 15.2821 19.7433 14.8545 20.6041 14.0859C21.4648 13.3172 21.9878 12.2649 22.0672 11.1419C22.0663 10.943 22.0663 10.7439 22.0672 10.5446H23.8571C24.0374 10.5447 24.2152 10.5856 24.3758 10.6638C24.5365 10.7421 24.6755 10.8555 24.7815 10.9949C24.8875 11.1343 24.9575 11.2956 24.9858 11.4658C25.0141 11.6359 24.9999 11.81 24.9443 11.9739L22.99 17.72C22.9177 17.9406 22.7729 18.1331 22.5771 18.2689C22.3813 18.4048 22.1449 18.4767 21.903 18.4742H12.3787C12.1679 18.4775 11.967 18.5599 11.8192 18.7034C11.6714 18.847 11.5886 19.0403 11.5886 19.2416C11.5886 19.443 11.6714 19.6362 11.8192 19.7798C11.967 19.9233 12.1679 20.0057 12.3787 20.009H23.0214C23.0573 20.0089 23.0929 20.0147 23.1267 20.0262L24.7539 20.5795C24.8232 20.6032 24.8816 20.6495 24.9187 20.7102C24.9559 20.771 24.9693 20.8424 24.9568 20.9117C24.9443 20.981 24.9065 21.0439 24.8502 21.0892C24.7939 21.1346 24.7226 21.1595 24.6489 21.1596C24.6132 21.1595 24.5778 21.1538 24.544 21.1426L22.9674 20.6052H22.6562C22.9111 20.748 23.1097 20.967 23.2213 21.2284C23.333 21.4897 23.3515 21.7789 23.274 22.0513C23.1965 22.3237 23.0274 22.5642 22.7926 22.7357C22.5579 22.9071 22.2706 23 21.9751 23C21.6796 23 21.3923 22.9071 21.1576 22.7357C20.9228 22.5642 20.7537 22.3237 20.6762 22.0513C20.5987 21.7789 20.6173 21.4897 20.7289 21.2284C20.8406 20.967 21.0391 20.748 21.294 20.6052H14.2794C14.5343 20.748 14.7328 20.967 14.8445 21.2284C14.9561 21.4897 14.9747 21.7789 14.8972 22.0513C14.8197 22.3237 14.6506 22.5642 14.4158 22.7357C14.1811 22.9071 13.8938 23 13.5983 23C13.3028 23 13.0155 22.9071 12.7808 22.7357C12.546 22.5642 12.3769 22.3237 12.2994 22.0513C12.2219 21.7789 12.2404 21.4897 12.3521 21.2284C12.4637 20.967 12.6623 20.748 12.9172 20.6052H12.3787C12.0361 20.6052 11.7049 20.4876 11.4455 20.2738C11.1862 20.06 11.0159 19.7642 10.9658 19.4405C10.9156 19.1167 10.989 18.7865 11.1725 18.5102C11.356 18.2338 11.6373 18.0296 11.9653 17.9349L8.72034 8.61764C8.68808 8.51772 8.62267 8.43053 8.53399 8.36925C8.4453 8.30797 8.33814 8.27592 8.22871 8.27793L5.31249 8.27963ZM17.4305 14.6858C16.6349 14.6858 15.8571 14.4605 15.1956 14.0382C14.534 13.6159 14.0184 13.0157 13.7139 12.3135C13.4094 11.6113 13.3298 10.8387 13.485 10.0932C13.6402 9.34775 14.0234 8.66301 14.586 8.12557C15.1486 7.58812 15.8654 7.22212 16.6457 7.07384C17.4261 6.92556 18.2349 7.00167 18.97 7.29253C19.7051 7.58339 20.3334 8.07594 20.7754 8.70791C21.2174 9.33987 21.4534 10.0829 21.4534 10.8429C21.4522 11.8618 21.028 12.8386 20.2738 13.559C19.5196 14.2795 18.4971 14.6847 17.4305 14.6858Z" fill="#6C6C6C"/>
</svg>
