<svg width="30" height="30" viewBox="0 0 30 30" fill="none" xmlns="http://www.w3.org/2000/svg">
<path fill-rule="evenodd" clip-rule="evenodd" d="M19.5652 7.62963C19.5652 7.28189 19.8377 7 20.1739 7H27.4783C27.8144 7 28.087 7.28189 28.087 7.62963V23.3704H28.6957C28.8637 23.3704 29 23.5113 29 23.6852C29 23.8591 28.8637 24 28.6957 24H27.4783H20.1739H18.9565C18.7884 24 18.6522 23.8591 18.6522 23.6852C18.6522 23.5113 18.7884 23.3704 18.9565 23.3704H19.5652V15.7991C19.2179 15.7262 18.9565 15.4085 18.9565 15.0278V14.3969C18.2183 14.4325 17.1304 15.0802 17.1304 16.7593C17.1304 17.2637 16.9907 17.6563 16.7601 17.9586C16.5312 18.2586 16.2209 18.4593 15.8944 18.5971C15.3559 18.8245 14.7427 18.8912 14.3278 18.9363C14.2715 18.9424 14.219 18.9481 14.1707 18.9538C14.1745 18.9993 14.1765 19.0451 14.1765 19.091V21.2926V21.2978V23.3704C14.1765 23.7181 13.904 24 13.5678 24H12.3146C11.9784 24 11.7059 23.7181 11.7059 23.3704V22.8667H4.29411V23.3704C4.29411 23.7181 4.0216 24 3.68541 24H2.43223C2.09605 24 1.82353 23.7181 1.82353 23.3704V21.2296V21.2283V19.091C1.82353 18.8413 1.88094 18.5952 1.99101 18.3731L2.29144 17.7667H1.54783C1.24527 17.7667 1 17.513 1 17.2C1 16.887 1.24527 16.6333 1.54783 16.6333H2.511C2.62051 16.6333 2.72252 16.6666 2.8081 16.7238L3.45816 15.4117C3.71856 14.8861 4.24149 14.5556 4.81244 14.5556H11.1876C11.7585 14.5556 12.2814 14.8861 12.5418 15.4117L13.1919 16.7238C13.2775 16.6666 13.3795 16.6333 13.489 16.6333H14.4522C14.7547 16.6333 15 16.887 15 17.2C15 17.513 14.7547 17.7667 14.4522 17.7667H13.7086L14.009 18.3731C14.0521 18.46 14.0871 18.5506 14.1137 18.6436C14.1743 18.6363 14.2397 18.6291 14.309 18.6215L14.3093 18.6214C14.7265 18.5756 15.2857 18.5141 15.7794 18.3057C16.0744 18.1811 16.3347 18.008 16.5212 17.7636C16.7058 17.5216 16.8261 17.1993 16.8261 16.7593C16.8261 14.889 18.0667 14.1177 18.9565 14.0819V13.4537C18.9565 13.0729 19.2179 12.7553 19.5652 12.6824V7.62963ZM22.6087 18.6481L24.4348 15.5L24.013 18.0185H25.0435L23.2174 21.1667L23.6391 18.6481H22.6087ZM20.1739 8.57407C20.1739 8.22633 20.4464 7.94444 20.7826 7.94444H26.8696C27.2057 7.94444 27.4783 8.22633 27.4783 8.57407V11.7222C27.4783 12.07 27.2057 12.3519 26.8696 12.3519H20.7826C20.4464 12.3519 20.1739 12.07 20.1739 11.7222V8.57407ZM3.23394 19.3855C2.92789 19.3293 2.64706 19.5728 2.64706 19.8943C2.64706 20.1797 2.87073 20.4111 3.14669 20.4111H4.30853C4.52797 20.4111 4.70589 20.2271 4.70589 20.0001C4.70589 19.8008 4.56766 19.6302 4.37793 19.5954L3.23394 19.3855ZM11.2941 20.0001C11.2941 19.8008 11.4324 19.6302 11.6221 19.5954L12.7661 19.3855C13.0721 19.3293 13.353 19.5728 13.353 19.8943C13.353 20.1797 13.1293 20.4111 12.8533 20.4111H11.6915C11.472 20.4111 11.2941 20.2271 11.2941 20.0001ZM6.65728 21.3556C6.48919 21.3556 6.35293 21.4965 6.35293 21.6704V21.7963C6.35293 21.9702 6.48919 22.1111 6.65728 22.1111H9.34269C9.51078 22.1111 9.64704 21.9702 9.64704 21.7963V21.6704C9.64704 21.4965 9.51078 21.3556 9.34269 21.3556H6.65728ZM4.13022 15.3775C4.20003 15.2218 4.35087 15.1222 4.51677 15.1222H11.4833C11.6492 15.1222 11.8 15.2218 11.8698 15.3775L12.6604 17.1404C12.7913 17.4326 12.5852 17.7666 12.2738 17.7666H3.72617C3.41485 17.7666 3.20865 17.4326 3.33964 17.1404L4.13022 15.3775Z" fill="#6C6C6C"/>
</svg>
