<svg width="30" height="30" viewBox="0 0 30 30" fill="none" xmlns="http://www.w3.org/2000/svg">
<path d="M21.1114 23.4167V23.1803H9.77808C8.6049 23.1785 7.65485 22.2285 7.65308 21.0553V7.36142H7.41667C6.63485 7.36319 6.00265 7.99627 6 8.77809V23.4167C6.00266 24.1985 6.63485 24.8307 7.41667 24.8334H19.6948C20.4757 24.8307 21.1088 24.1985 21.1114 23.4167Z" fill="#6C6C6C"/>
<path d="M20.8134 5.51002C20.6425 5.30814 20.4185 5.15938 20.167 5.07883V8.3052H22.9534C22.9029 8.09802 22.8073 7.905 22.6718 7.7403L20.8134 5.51002Z" fill="#6C6C6C"/>
<path d="M14.9722 15.3886H16.3888V19.6386H14.9722V15.3886Z" fill="#6C6C6C"/>
<path d="M18.9863 16.8053H20.403V19.6386H18.9863V16.8053Z" fill="#6C6C6C"/>
<path d="M9.778 5C8.99529 5.00089 8.36221 5.63485 8.36133 6.41667V21.0553C8.36221 21.838 8.99529 22.4711 9.778 22.4719H21.5833C22.3651 22.4711 22.999 21.838 22.9999 21.0553V9.25H20.1666C19.6451 9.24912 19.2227 8.82677 19.2218 8.30526V5H9.778ZM11.1947 8.30526H16.8613C17.1216 8.30526 17.3333 8.51687 17.3333 8.77806C17.3333 9.03837 17.1216 9.24998 16.8613 9.24998H11.1947C10.9335 9.24998 10.7219 9.03837 10.7219 8.77806C10.7219 8.51687 10.9335 8.30526 11.1947 8.30526ZM13.3197 20.1105V20.1114C13.3197 20.2363 13.2692 20.3567 13.1807 20.4452C13.0921 20.5338 12.9726 20.5833 12.8468 20.5833H10.4854H10.4863C10.2251 20.5833 10.0135 20.3717 10.0135 20.1114V17.2781C10.0135 17.0169 10.2251 16.8053 10.4863 16.8053H12.8477H12.8468C12.9726 16.8053 13.0921 16.8558 13.1807 16.9443C13.2692 17.0328 13.3197 17.1524 13.3197 17.2781V20.1105ZM10.7218 12.5553C10.7218 12.295 10.9335 12.0833 11.1946 12.0833H20.1666C20.4278 12.0833 20.6385 12.295 20.6385 12.5553C20.6385 12.8165 20.4278 13.0281 20.1666 13.0281H11.1946C10.9335 13.0281 10.7218 12.8165 10.7218 12.5553ZM17.3333 20.1114C17.3333 20.2363 17.2837 20.3567 17.1951 20.4452C17.1066 20.5338 16.9862 20.5834 16.8613 20.5834H14.4999C14.2387 20.5834 14.028 20.3718 14.028 20.1114V14.9167C14.028 14.6555 14.2387 14.4448 14.4999 14.4448H16.8613C16.9862 14.4448 17.1066 14.4944 17.1951 14.5829C17.2837 14.6714 17.3333 14.7919 17.3333 14.9167V20.1114ZM21.3468 16.3333V20.1114C21.3468 20.2363 21.2973 20.3567 21.2087 20.4452C21.1202 20.5338 20.9998 20.5834 20.8749 20.5834H18.5135C18.2532 20.5834 18.0416 20.3718 18.0416 20.1114V16.3334C18.0416 16.0722 18.2532 15.8614 18.5135 15.8614H20.8749C20.9998 15.8614 21.1202 15.911 21.2087 15.9996C21.2973 16.0881 21.3468 16.2085 21.3468 16.3333ZM20.1666 10.1948C20.4278 10.1948 20.6385 10.4055 20.6385 10.6667C20.6385 10.9279 20.4278 11.1386 20.1666 11.1386H11.1947C10.9335 11.1386 10.7219 10.9279 10.7219 10.6667C10.7219 10.4055 10.9335 10.1948 11.1947 10.1948H20.1666Z" fill="#6C6C6C"/>
<path d="M10.9585 17.75H12.3752V19.6386H10.9585V17.75Z" fill="#6C6C6C"/>
</svg>
