<svg width="30" height="30" viewBox="0 0 30 30" fill="none" xmlns="http://www.w3.org/2000/svg">
<path d="M19.6998 15.635C18.8363 15.635 17.9923 15.891 17.2743 16.3708C16.5563 16.8505 15.9968 17.5323 15.6663 18.3301C15.3359 19.1278 15.2494 20.0057 15.4179 20.8526C15.5863 21.6995 16.0021 22.4774 16.6127 23.0879C17.2233 23.6985 18.0012 24.1143 18.8481 24.2828C19.695 24.4512 20.5728 24.3648 21.3706 24.0343C22.1683 23.7039 22.8502 23.1443 23.3299 22.4264C23.8096 21.7084 24.0657 20.8643 24.0657 20.0008C24.0596 18.8448 23.5977 17.7378 22.7803 16.9204C21.9628 16.1029 20.8559 15.641 19.6998 15.635ZM20.4658 20.3838C20.347 20.3809 20.2299 20.3549 20.1211 20.3072L18.4743 21.954C18.382 22.0454 18.2594 22.0999 18.1297 22.1072C18.0639 22.1135 17.9976 22.1028 17.9372 22.0759C17.8768 22.0491 17.8243 22.0071 17.785 21.954C17.6926 21.8553 17.6413 21.7253 17.6413 21.5901C17.6413 21.455 17.6926 21.325 17.785 21.2263L19.4318 19.5796C19.3881 19.4694 19.3623 19.3531 19.3552 19.2349C19.3377 19.0523 19.3582 18.868 19.4154 18.6938C19.4727 18.5195 19.5654 18.3589 19.6877 18.2222C19.81 18.0855 19.9593 17.9756 20.1261 17.8995C20.293 17.8233 20.4738 17.7825 20.6573 17.7796C20.776 17.7825 20.8931 17.8085 21.0019 17.8562C21.0785 17.8562 21.0785 17.9328 21.0402 17.9711L20.2743 18.6987C20.2566 18.7077 20.2417 18.7214 20.2313 18.7383C20.2209 18.7552 20.2153 18.7746 20.2153 18.7945C20.2153 18.8143 20.2209 18.8338 20.2313 18.8507C20.2417 18.8676 20.2566 18.8813 20.2743 18.8902L20.7721 19.3881C20.7858 19.4056 20.8032 19.4197 20.8231 19.4295C20.843 19.4392 20.8649 19.4443 20.887 19.4443C20.9092 19.4443 20.9311 19.4392 20.951 19.4295C20.9709 19.4197 20.9883 19.4056 21.0019 19.3881L21.7296 18.6604C21.7679 18.6221 21.8828 18.6221 21.8828 18.6987C21.9225 18.81 21.9482 18.9258 21.9593 19.0434C21.9565 19.2318 21.9147 19.4176 21.8365 19.5891C21.7584 19.7606 21.6457 19.9141 21.5055 20.04C21.3652 20.1659 21.2005 20.2614 21.0215 20.3205C20.8426 20.3797 20.6534 20.4012 20.4658 20.3838Z" fill="#686868"/>
<path d="M13.3265 15.8357C16.0426 15.8357 18.2444 13.6339 18.2444 10.9179C18.2444 8.2018 16.0426 6 13.3265 6C10.6105 6 8.40869 8.2018 8.40869 10.9179C8.40869 13.6339 10.6105 15.8357 13.3265 15.8357Z" fill="#686868"/>
<path d="M14.7258 24.2284C15.5678 24.2284 15.1085 23.6602 15.1085 23.6602C14.2635 22.6183 13.8043 21.3214 13.8073 19.9853C13.8032 19.1479 13.9862 18.32 14.3431 17.5607C14.3591 17.5174 14.3854 17.4784 14.4196 17.4471C14.6875 16.9167 14.1517 16.8788 14.1517 16.8788C13.9107 16.8473 13.6676 16.8346 13.4246 16.8409C11.6227 16.8479 9.88304 17.4937 8.52093 18.6614C7.15881 19.829 6.26445 21.4412 6 23.2055C6 23.5844 6.11481 24.2663 7.30121 24.2663H14.611C14.6875 24.2284 14.6875 24.2284 14.7258 24.2284Z" fill="#686868"/>
</svg>
