<svg width="30" height="30" viewBox="0 0 30 30" fill="none" xmlns="http://www.w3.org/2000/svg">
<path fill-rule="evenodd" clip-rule="evenodd" d="M17.466 4.16746C17.0567 4 16.5378 4 15.5 4C14.4621 4 13.9432 4 13.5339 4.16746C12.9882 4.39075 12.5546 4.81904 12.3285 5.35809C12.2253 5.60417 12.1849 5.89035 12.1691 6.30779C12.1459 6.92125 11.8274 7.48908 11.2891 7.79602C10.7509 8.10296 10.0938 8.09149 9.54427 7.80464C9.17035 7.60943 8.89924 7.50088 8.63188 7.46612C8.0462 7.38996 7.45388 7.54672 6.98523 7.90192C6.63373 8.16832 6.37427 8.61219 5.85536 9.49992C5.33645 10.3877 5.077 10.8315 5.01917 11.2654C4.94206 11.8439 5.10078 12.4289 5.46039 12.8919C5.62454 13.1032 5.85522 13.2807 6.21324 13.5029C6.73958 13.8296 7.07824 14.3861 7.07821 15C7.07818 15.6139 6.73953 16.1703 6.21324 16.4969C5.85516 16.7192 5.62444 16.8968 5.46028 17.1082C5.10066 17.571 4.94196 18.156 5.01906 18.7345C5.07689 19.1683 5.33635 19.6123 5.85525 20.5C6.37416 21.3877 6.63362 21.8317 6.98511 22.098C7.45377 22.4532 8.04609 22.6099 8.63177 22.5338C8.89912 22.499 9.17021 22.3905 9.54409 22.1953C10.0936 21.9084 10.7508 21.897 11.2891 22.2039C11.8274 22.5109 12.1459 23.0787 12.1691 23.6923C12.1849 24.1096 12.2253 24.3959 12.3285 24.6419C12.5546 25.1809 12.9882 25.6093 13.5339 25.8326C13.9432 26 14.4621 26 15.5 26C16.5378 26 17.0567 26 17.466 25.8326C18.0118 25.6093 18.4454 25.1809 18.6714 24.6419C18.7747 24.3959 18.8151 24.1097 18.8309 23.6922C18.8541 23.0787 19.1726 22.5109 19.7108 22.2039C20.2491 21.8969 20.9063 21.9084 21.4558 22.1953C21.8297 22.3905 22.1007 22.4989 22.3681 22.5337C22.9538 22.6099 23.5461 22.4532 24.0147 22.098C24.3663 21.8316 24.6257 21.3877 25.1446 20.4999C25.6635 19.6122 25.9229 19.1683 25.9809 18.7345C26.0579 18.156 25.8992 17.5709 25.5396 17.108C25.3754 16.8967 25.1447 16.7191 24.7866 16.4969C24.2604 16.1703 23.9218 15.6138 23.9218 14.9999C23.9218 14.386 24.2604 13.8297 24.7866 13.5031C25.1448 13.2808 25.3755 13.1033 25.5397 12.8919C25.8993 12.429 26.058 11.844 25.981 11.2655C25.923 10.8316 25.6636 10.3877 25.1447 9.5C24.6258 8.61227 24.3664 8.1684 24.0148 7.902C23.5462 7.5468 22.9539 7.39004 22.3682 7.4662C22.1008 7.50096 21.8297 7.6095 21.4559 7.80468C20.9064 8.09155 20.2492 8.10302 19.7109 7.79606C19.1727 7.4891 18.8541 6.92123 18.8308 6.30773C18.815 5.89033 18.7747 5.60416 18.6714 5.35809C18.4454 4.81904 18.0118 4.39075 17.466 4.16746ZM15.5 18.3C17.3452 18.3 18.841 16.8226 18.841 15C18.841 13.1774 17.3452 11.7 15.5 11.7C13.6548 11.7 12.159 13.1774 12.159 15C12.159 16.8226 13.6548 18.3 15.5 18.3Z" fill="#686868"/>
</svg>
