<svg width="30" height="30" viewBox="0 0 30 30" fill="none" xmlns="http://www.w3.org/2000/svg">
<path d="M19.7626 15C16.5932 15 14 17.4923 14 20.5385C14 21.6462 14.3602 22.7538 15.0084 23.7231C15.1525 23.9308 15.3686 24 15.5847 24C15.8008 24 16.0169 23.8615 16.161 23.7231C16.6652 23.0308 17.3855 22.4769 18.2499 22.2L21.3473 18.0462C21.5634 17.7692 21.9955 17.6308 22.3557 17.9077C22.6438 18.1154 22.7879 18.5308 22.4998 18.8769L20.1947 21.9231C21.4193 22.0615 22.5718 22.6846 23.2921 23.6538C23.4362 23.8615 23.6523 23.9308 23.8684 23.9308C24.0845 23.9308 24.3006 23.7923 24.4446 23.6538C25.0929 22.7538 25.4531 21.6462 25.4531 20.4692C25.5251 17.4923 22.932 15 19.7626 15Z" fill="#686868"/>
<path d="M12.3179 20.6357C12.3179 16.6109 15.6109 13.3179 19.6357 13.3179C22.0506 13.3179 24.1728 14.4887 25.49 16.245V8.19536C25.49 6.95132 24.5387 6 23.2946 6H7.19536C5.95132 6 5 6.95132 5 8.19536V21.3675C5 22.6115 5.95132 23.5629 7.19536 23.5629H12.9033C12.5374 22.6115 12.3179 21.6602 12.3179 20.6357ZM12.391 8.63443C12.4642 8.56125 12.4642 8.48807 12.5374 8.41489C12.8301 8.12218 13.2692 8.12218 13.5619 8.41489C13.6351 8.48807 13.7082 8.56125 13.7082 8.63443C13.7814 8.70761 13.7814 8.85396 13.7814 8.92714C13.7814 9.00032 13.7814 9.14668 13.7082 9.21986C13.6351 9.29303 13.6351 9.36621 13.5619 9.43939C13.4155 9.58575 13.2692 9.65893 13.0496 9.65893C12.9765 9.65893 12.8301 9.65893 12.7569 9.58575C12.6837 9.51257 12.6106 9.51257 12.5374 9.43939C12.4642 9.36621 12.391 9.29303 12.391 9.21986C12.3179 9.14668 12.3179 9.00032 12.3179 8.92714C12.3179 8.85396 12.3179 8.70761 12.391 8.63443ZM10.1957 8.63443C10.2689 8.56125 10.2689 8.48807 10.342 8.41489C10.4152 8.34171 10.4884 8.26853 10.5616 8.26853C10.8543 8.12218 11.147 8.19536 11.3665 8.41489C11.4397 8.48807 11.5129 8.56125 11.5129 8.63443C11.5861 8.70761 11.5861 8.85396 11.5861 8.92714C11.5861 9.14668 11.5129 9.29303 11.3665 9.43939C11.2202 9.58575 11.0738 9.65893 10.8543 9.65893C10.6347 9.65893 10.4884 9.58575 10.342 9.43939C10.1957 9.29303 10.1225 9.14668 10.1225 8.92714C10.1225 8.85396 10.1225 8.70761 10.1957 8.63443ZM8.14668 8.41489L8.21986 8.34171C8.29303 8.34171 8.29303 8.26853 8.36621 8.26853C8.43939 8.19536 8.43939 8.19536 8.51257 8.19536C8.58575 8.19536 8.73211 8.19536 8.80528 8.19536C8.87846 8.19536 8.87846 8.19536 8.95164 8.26853C9.02482 8.26853 9.02482 8.34171 9.098 8.34171L9.17118 8.41489C9.24436 8.48807 9.31753 8.56125 9.31753 8.63443C9.39071 8.70761 9.39071 8.85396 9.39071 8.92714C9.39071 9.00032 9.39071 9.14668 9.31753 9.21986C9.31753 9.29303 9.24436 9.36621 9.17118 9.43939C9.02482 9.58575 8.87846 9.65893 8.65893 9.65893C8.43939 9.65893 8.29303 9.58575 8.14668 9.43939C8.00032 9.29303 7.92714 9.14668 7.92714 8.92714C7.92714 8.70761 8.00032 8.56125 8.14668 8.41489ZM8.65893 13.3179H12.3179C12.7569 13.3179 13.0496 13.6106 13.0496 14.0496C13.0496 14.4887 12.7569 14.7814 12.3179 14.7814H8.65893C8.21986 14.7814 7.92714 14.4887 7.92714 14.0496C7.92714 13.6106 8.21986 13.3179 8.65893 13.3179ZM10.1225 16.9768H8.65893C8.21986 16.9768 7.92714 16.6841 7.92714 16.245C7.92714 15.8059 8.21986 15.5132 8.65893 15.5132H10.1225C10.5616 15.5132 10.8543 15.8059 10.8543 16.245C10.8543 16.6841 10.5616 16.9768 10.1225 16.9768Z" fill="#686868"/>
</svg>
