<svg width="30" height="30" viewBox="0 0 30 30" fill="none" xmlns="http://www.w3.org/2000/svg">
<path d="M15.4918 7.00008C15.1962 6.99965 14.9012 7.00098 14.6057 7.00386C13.0172 7.03138 11.419 7.06997 9.84544 7.28978C9.3024 7.56581 9.02391 8.17179 8.68474 8.65119C8.07151 9.6773 7.78616 10.8564 7.44829 11.9894C7.30655 12.1435 7.20961 12.3579 7.05066 12.4874C6.90848 12.453 7.06096 12.1323 7.02605 11.9799C7.10928 11.5092 6.54587 11.2226 6.15315 11.4024C5.75568 11.556 5.15335 11.5966 5.00002 12.0651C4.99605 12.5964 5.54407 12.9942 6.05658 12.9286C6.29249 12.9671 6.39243 13.261 6.53753 13.4228C6.54986 14.2809 6.35484 15.1411 6.40309 16.0055C6.42787 16.5524 6.37311 17.1277 6.54132 17.6528C6.58869 17.7027 6.63416 17.7172 6.67765 17.7115C6.66816 17.7428 6.6606 17.7749 6.6606 17.8081V22.2615C6.66073 22.4558 6.83745 22.6327 7.03173 22.6327H8.51622C8.7105 22.6325 8.88734 22.4558 8.88734 22.2615V20.7259H21.9202V22.2615C21.9202 22.4558 22.097 22.6325 22.2913 22.6327H23.7758C23.9701 22.6325 24.1468 22.4558 24.1469 22.2615V17.8081C24.1469 17.7729 24.1405 17.7389 24.1299 17.7058C24.3969 17.7073 24.3294 17.2768 24.3722 17.0848C24.4175 15.9314 24.4143 14.7577 24.234 13.6216C24.2644 13.3465 24.5056 13.0925 24.7093 12.9361C25.1997 12.9603 25.7416 12.6789 25.817 12.1541C25.7476 11.6668 25.1364 11.5673 24.7528 11.427C24.4057 11.2834 23.8164 11.3507 23.7815 11.8133C23.7446 12.024 23.8807 12.3521 23.7872 12.4912C23.5716 12.401 23.4857 12.1209 23.3403 11.9459C23.0443 10.9107 22.7757 9.83831 22.2686 8.87652C21.9189 8.31716 21.5661 7.70257 21.0265 7.30493C20.091 7.10785 19.1067 7.15406 18.1522 7.06256C17.2664 7.01973 16.3786 7.00136 15.4918 7.00008ZM15.7285 8.60764C17.3003 8.62902 18.8856 8.6184 20.447 8.77048C20.9459 8.82263 21.0449 9.41787 21.2915 9.76077C21.5295 10.2669 21.8591 10.7828 21.9183 11.3437C21.4899 11.656 20.8967 11.7138 20.4092 11.9288C19.7655 12.1494 19.0584 11.9815 18.3869 12.0348C15.851 12.0288 13.3133 12.0696 10.7789 12.0159C10.1553 11.814 9.48739 11.6621 8.8987 11.3948C8.91991 10.8499 9.24758 10.3476 9.46106 9.85166C9.70393 9.47621 9.8483 8.91469 10.315 8.76859C12.1046 8.58579 13.9276 8.63029 15.7285 8.60764ZM8.45373 11.9989C9.26169 12.0837 10.0926 12.2883 10.7543 12.7714C10.989 12.9812 11.0652 13.4147 10.9058 13.6727C10.3601 13.9029 9.68094 13.6311 9.17325 13.9662C8.7962 14.2005 9.09273 14.7223 8.85704 15.0095C8.41224 15.1001 7.88685 15.0845 7.46155 14.9091C7.09446 14.6269 7.28363 14.0655 7.29681 13.6746C7.3981 13.0236 7.65263 12.0487 8.45373 11.9989ZM22.4484 12.0045C23.0011 12.0652 23.2626 12.6859 23.399 13.1577C23.5029 13.6859 23.7065 14.3027 23.452 14.8069C23.1318 15.1514 22.5749 15.0023 22.155 15.0625C21.9144 15.1429 21.8407 14.9093 21.8501 14.7179C21.8797 14.376 21.8146 13.9259 21.4032 13.8621C20.9279 13.7043 20.3886 13.8575 19.9263 13.703C19.6622 13.3078 19.9208 12.7087 20.3618 12.5556C21.0082 12.2366 21.7202 12.0265 22.4484 12.0045Z" fill="#6C6C6C"/>
</svg>
