<svg width="30" height="30" viewBox="0 0 30 30" fill="none" xmlns="http://www.w3.org/2000/svg">
<path fill-rule="evenodd" clip-rule="evenodd" d="M14.6545 6.00086C10.7806 6.15928 7.43739 8.94035 6.35709 12.9032C5.27679 16.8661 6.70222 21.1199 9.89487 23.4606C10.374 23.8119 10.9421 24 11.5239 24C13.8413 24 16.1587 24 18.4761 24C19.0579 24 19.626 23.8119 20.1051 23.4606C23.2978 21.1199 24.7232 16.8661 23.6429 12.9032C22.5626 8.94035 19.2194 6.15928 15.3455 6.00086C15.0893 6.00063 14.9049 5.99905 14.6545 6.00086ZM14.9732 8.27003H14.9735H14.9738C14.9918 8.27166 15.0095 8.27083 15.0262 8.27003H15.0265H15.0268C18.109 8.28284 20.805 10.482 21.6179 13.6464C21.592 13.654 21.592 13.654 21.6179 13.6464C21.6701 13.8496 21.526 14.0506 21.3281 14.0506H15H8.67188C8.47398 14.0506 8.32988 13.8496 8.38208 13.6465C8.40796 13.654 8.40799 13.654 8.38208 13.6465C9.19499 10.482 11.891 8.28284 14.9732 8.27003ZM8.49718 16.2223C8.52203 16.2218 8.54751 16.2246 8.5732 16.2312C11.009 16.8519 12.9686 18.7717 13.7513 21.304C13.8151 21.5105 13.6701 21.7238 13.4659 21.7238H11.5239C11.3753 21.7238 11.2303 21.6758 11.108 21.5862C9.52542 20.4259 8.47258 18.6122 8.20567 16.5866C8.17998 16.3916 8.32324 16.2256 8.49718 16.2223ZM21.5028 16.2223C21.6768 16.2256 21.82 16.3916 21.7943 16.5866C21.5274 18.6122 20.4746 20.4259 18.892 21.5862C18.7697 21.6758 18.6247 21.7238 18.4761 21.7238H16.5341C16.3299 21.7238 16.1849 21.5105 16.2487 21.304C17.0314 18.7717 18.991 16.8519 21.4268 16.2312C21.4525 16.2246 21.478 16.2218 21.5028 16.2223Z" fill="#6C6C6C"/>
</svg>
